<?xml version="1.0" encoding="utf-8"?>
<!-- Generator: Adobe Illustrator 21.1.0, SVG Export Plug-In . SVG Version: 6.00 Build 0)  -->
<svg version="1.1" id="Layer_1" xmlns="http://www.w3.org/2000/svg" xmlns:xlink="http://www.w3.org/1999/xlink" x="0px" y="0px" viewBox="0 0 350 350" style="enable-background:new 0 0 350 350;" xml:space="preserve">
<style type="text/css">
	.st0{fill:#AF4747;}
	.st1{fill:#AF4747;stroke:#AF4747;stroke-miterlimit:10;}
	.st2{fill:#F69393;}
	.st3{fill:none;}
	.st4{fill:#ED6F6E;}
	.st5{fill:none;stroke:#AF4747;stroke-width:3;stroke-linecap:round;stroke-miterlimit:10;}
	.st6{fill:none;stroke:#AF4747;stroke-width:3;stroke-miterlimit:10;}
	.st7{fill:#FFFFFF;}
	.st8{fill:none;stroke:#AF4747;stroke-width:2;stroke-linecap:round;stroke-miterlimit:10;}
	.st9{fill:#FFFFFF;stroke:#AF4747;stroke-miterlimit:10;}
	.st10{fill:#EFEFEF;}
	.st11{fill:none;stroke:#AF4747;stroke-width:2;stroke-miterlimit:10;}
    
    
    
@keyframes blink {
  0% { height: 5px; }
  3% { transform: translate(0px, 5px); height: 1px; }
  5% { transform: translate(0px, 0px); height: 5px; }
}

.eye {
  height: 20px;
  width: 20px;
  animation-name: blink;
  animation-duration: 4s;
  animation-iteration-count: infinite;
}
    /*arm V*/
    
    @-webkit-keyframes swinging{
    0%{-webkit-transform: rotate(7deg);}
    50%{-webkit-transform: rotate(0deg)}
    100%{-webkit-transform: rotate(7deg);}
}
 
@keyframes swinging{
    0%{transform: rotate(7deg);}
    50%{transform: rotate(0deg)}
    100%{transform: rotate(7deg);}
}
 
#armV{
    -webkit-transform-origin: 70% 70%;
    transform-origin: 70% 70%;
    -webkit-animation: swinging 3.5s ease-in-out forwards infinite;
    animation: swinging 3.5s ease-in-out forwards infinite;
}
    
      /*arm H*/
    
    @-webkit-keyframes swinging{
    0%{-webkit-transform: rotate(3deg);}
    50%{-webkit-transform: rotate(0deg)}
    100%{-webkit-transform: rotate(3deg);}
}
 
@keyframes swinging{
    0%{transform: rotate(3deg);}
    50%{transform: rotate(0deg)}
    100%{transform: rotate(3deg);}
}
 
#armH{
    -webkit-transform-origin: 10% 10%;
    transform-origin: 10% 10%;
    -webkit-animation: swinging 3.5s ease-in-out forwards infinite;
    animation: swinging 3.5s ease-in-out forwards infinite;
}
    
</style>
<g>
	<g>
		<g>
			<path class="st0" d="M262.6,243.1c15.9-7,32.3-12.8,49.1-17.5c1.9-0.5,1.1-3.4-0.8-2.9c-17,4.8-33.6,10.7-49.8,17.8
				C259.3,241.3,260.8,243.9,262.6,243.1L262.6,243.1z"/>
		</g>
	</g>
	<g>
		<g>
			<path class="st0" d="M312.6,224.5c0.8-2.3,0.5-4.9-0.8-6.9c-0.9,0.5-1.7,1-2.6,1.5c0.8,1.3,1.4,2.6,1.7,4c0.2,1,1.4,1.3,2.2,0.9
				c1.2-0.6,2.3-1.2,3.5-1.8c-0.6-0.8-1.2-1.6-1.8-2.4c-1.3,1-2.5,2-3.8,2.9c-1,0.8-0.2,2.2,0.7,2.5c1.1,0.4,2.4,0.2,3.5,0.6
				c-0.1-0.9-0.2-1.8-0.4-2.7c-0.7,0.5-1,0.4-0.7-0.5c0.4-1.1,1.4-1.9,2.3-2.7c1.4-1.3-0.7-3.4-2.1-2.1c-1.8,1.6-3.9,3.8-3.2,6.4
				c0.6,2.3,3.4,2.7,5.2,1.5c1.1-0.8,0.8-2.3-0.4-2.7c-1.1-0.4-2.4-0.2-3.5-0.6c0.2,0.8,0.4,1.7,0.7,2.5c1.3-1,2.5-2,3.8-2.9
				c1.4-1.1-0.4-3.1-1.8-2.4c-1.2,0.6-2.3,1.2-3.5,1.8c0.7,0.3,1.5,0.6,2.2,0.9c-0.3-1.7-1-3.3-2-4.8c-1.1-1.6-3.6-0.1-2.6,1.5
				c0.9,1.4,1.1,3,0.5,4.6C309.1,225.5,312,226.3,312.6,224.5L312.6,224.5z"/>
		</g>
	</g>
	<g>
		<g>
			<path class="st0" d="M313.8,224.8c1.1,0.8,3.1,0.5,4.3,0c0.8-0.3,1.3-1,1-1.8c-0.2-0.7-1.1-1.3-1.8-1c-0.4,0.1-0.8,0.3-1.2,0.3
				c-0.2,0-0.4,0-0.6,0c-0.1,0-0.2,0-0.3,0h0.1c-0.7-0.5-1.7-0.1-2.1,0.5C312.8,223.5,313.1,224.3,313.8,224.8L313.8,224.8z"/>
		</g>
	</g>
</g>
<circle class="st0" cx="209.5" cy="203.5" r="0.5"/>
<g id="bein">
	<g>
		<g>
			<path class="st0" d="M136.7,260.7c0.1,7.9,0.2,15.9,0.4,23.8c0,1.9,0.1,3.8,0.1,5.7c0,3.1-0.4,4.3-3.9,5c-3.9,0.7-8.9,0-12.9,0
				c-1.9,0-1.9,3,0,3c4.9,0,10.6,0.8,15.5-0.1c2.4-0.4,3.9-1.5,4.3-4c0.8-4.9-0.1-10.4-0.2-15.4c-0.1-6-0.2-12.1-0.3-18.1
				C139.7,258.7,136.7,258.7,136.7,260.7L136.7,260.7z"/>
		</g>
	</g>
	<g>
		<g>
			<path class="st0" d="M189.6,242.7c-1.5,14.8-2.6,29.6-3.2,44.5c-0.2,4.2-1.7,9.5,2.5,12c5,3,12,4.1,17.7,5.1
				c1.9,0.3,2.7-2.6,0.8-2.9c-4.4-0.8-11.3-1.4-15.1-4c-4.1-2.7-3.1-6-2.9-10.2c0.1-3,0.3-5.9,0.4-8.9c0.7-11.9,1.6-23.8,2.8-35.6
				C192.8,240.8,189.8,240.8,189.6,242.7L189.6,242.7z"/>
		</g>
	</g>
</g>
<g id="armV">
	<g>
		<g>
			<path class="st0" d="M64.5,228.6c-8.7-6.7-17.4-13.3-26-20c-1.5-1.2-3,1.4-1.5,2.6c8.7,6.7,17.4,13.3,26,20
				C64.5,232.4,66,229.8,64.5,228.6L64.5,228.6z"/>
		</g>
	</g>
	<g>
		<g>
			<path class="st0" d="M37.4,208.7c-1.8,0.3-3.6,0.5-5.3,0.8c-0.8,0.1-1.2,1.1-1,1.8c0.2,0.9,1,1.2,1.8,1c1.8-0.3,3.6-0.5,5.3-0.8
				c0.8-0.1,1.2-1.1,1-1.8C39.1,208.9,38.2,208.6,37.4,208.7L37.4,208.7z"/>
		</g>
	</g>
	<g>
		<g>
			<path class="st0" d="M38.8,209.4c-1-1.5-1.8-3.1-2.5-4.8c-0.3-0.8-1-1.3-1.8-1c-0.7,0.2-1.4,1.1-1,1.8c0.8,1.9,1.7,3.8,2.8,5.5
				C37.3,212.6,39.9,211.1,38.8,209.4L38.8,209.4z"/>
		</g>
	</g>
	<g>
		<g>
			<path class="st0" d="M39.1,210.4c0.5-1.7,1-3.4,1.5-5.1c0.5-1.9-2.3-2.6-2.9-0.8c-0.5,1.7-1,3.4-1.5,5.1
				C35.7,211.4,38.6,212.2,39.1,210.4L39.1,210.4z"/>
		</g>
	</g>
	<g>
		<g>
			<path class="st0" d="M37.6,208.2c-1.7-0.7-3-2.1-4.8-2.3c-0.8-0.1-1.5,0.8-1.5,1.5c0,0.9,0.7,1.4,1.5,1.5
				c0.6,0.1,1.3,0.8,1.8,1.1c0.7,0.4,1.5,0.8,2.3,1.1c0.7,0.3,1.6-0.3,1.8-1C38.9,209.2,38.3,208.5,37.6,208.2L37.6,208.2z"/>
		</g>
	</g>
</g>
<g id="kropp">
	<g>
		<path class="st1" d="M79.4,197.4l-0.2,0.5l-0.1-0.1C79.2,197.6,79.3,197.5,79.4,197.4z"/>
		<path class="st1" d="M79.4,197.4l-0.2,0.5l-0.1-0.1C79.2,197.6,79.3,197.5,79.4,197.4z"/>
		<path class="st2" d="M289.5,157c0.4-0.4,0.7-0.9,1-1.5c10.4-20.8-15.1-25.7-21.2-20c-0.4-0.3-0.7-0.6-1.1-0.9
			c-1.5-10.2-9-23.3-33.8-34.2c-10.5-4.6-15.9-6.6-45.3,0.9c-0.3,0-0.6-0.1-0.9-0.1c-5.6-4.5-13.1-8.2-23.2-10.3
			c-37.7-7.7-53.2,10.8-56.9,16.2c-4.3-2.5-10.6-4.5-18.1-1.2c-14,6-13.8,23.8-13.8,23.8s0.6,0.4,0,1.1c-11,0.3-22.4,5.6-30.2,22.2
			c-4.6,9.8-2.5,29.3,11,42c3.3,3.1,10.3,8,15.7,10.2c-4.6,6.6-9,15.9-7.7,26.8c1.4,12.4,14.4,23.5,22.5,25.5
			C95,259.3,108,261,118,255c2.8-1.7,5.3-3.8,7.4-6.1c0.2,0.6,0.5,1.1,0.9,1.5c1,3.1,5,10.9,20.2,10.1c14.3-0.8,16-12,16-12
			c8.2-3.8,13.5-8.7,16.6-14c7.9,8,16,7,20.9,5.2c0.8,0.3,1.5,0.6,2.3,0.9c2.8,4.7,7.4,8.9,15.2,10.8c6.4,1.6,12.2,0,14.2-0.7
			c3.7,5.2,12.8,12.6,32.8,5.7c24.9-8.6,21-38.6,19.5-46.9c2.5-0.2,4.7-0.6,6.5-1.1c7.4-2.1,16-7,18-25
			C310.3,167.3,293,158.6,289.5,157z M112.4,110.4L112.4,110.4L112.4,110.4L112.4,110.4z M230.3,248.6h0.1c0,0.1,0,0.1,0.1,0.2
			L230.3,248.6z"/>
		<g>
			<path class="st3" d="M83.4,185.7L83.4,185.7L83.4,185.7L83.4,185.7z"/>
			<path class="st3" d="M236.3,45l0.2,0.2C236.5,45.2,236.4,45.1,236.3,45L236.3,45z"/>
			<path class="st4" d="M204.6,225.4c-17.3-3.4-35.4-2-52,3.9c-12.9,4.6-25.7,12.1-39.2,10.4c-16.4-2-29.1-19.5-26.1-35.7
				c0.9-4.6,2.7-9.5,0.4-13.6c-1.5-2.7-4.5-4.1-7.3-5.5c-8.5-4.1-17-8.7-23.7-15.3c-4.8-4.8-8.6-10.8-10.3-17.3
				c-0.2,0.3-0.3,0.6-0.5,1c-4.6,9.8-2.5,29.3,11,42c3.3,3.1,10.3,8,15.7,10.2c-4.6,6.6-9,15.9-7.7,26.8
				c1.4,12.4,14.4,23.5,22.5,25.5c7.5,1.8,20.5,3.5,30.5-2.5c2.8-1.7,5.3-3.8,7.4-6.1c0.2,0.6,0.5,1.1,0.9,1.5
				c1,3.1,5,10.9,20.2,10.1c14.3-0.8,16-12,16-12c8.2-3.8,13.5-8.7,16.6-14c7.9,8,16,7,20.9,5.2c0.8,0.3,1.5,0.6,2.3,0.9
				c2.8,4.7,7.4,8.9,15.2,10.8c6.4,1.6,12.2,0,14.2-0.7c3.7,5.2,12.8,12.6,32.8,5.7c17.7-6.1,20.9-23,20.7-35.2
				c-14.5,1.5-27.9,9.7-42.6,10.6C229.7,232.9,217.3,227.9,204.6,225.4z M230.3,249h0.1c0,0.1,0,0.1,0.1,0.2L230.3,249z"/>
		</g>
		<g>
			<path class="st5" d="M108,141c0,0-42.5-29.5-62,12c-4.6,9.8-2.5,29.3,11,42c3.8,3.6,12.5,9.5,18,11"/>
			<path class="st5" d="M82,195c0,0-19.5,15.5-17,37c1.4,12.4,14.4,23.5,22.5,25.5C95,259.3,108,261,118,255s15.2-16.9,15-22
				c-0.5-12.5-6-18-6-18"/>
			<path class="st5" d="M76.2,129.8c0,0-0.2-17.8,13.8-23.8s24,6,24,6"/>
			<path class="st5" d="M107.2,108.7c0,0,13.8-26.7,57.8-17.7s39,49,39,49"/>
			<path class="st5" d="M183.2,219c0,10.7-4.6,22.1-20.7,29.5"/>
			<path class="st5" d="M125.9,249.1c0,0,1.6,12.4,20.6,11.4s16-19,16-19"/>
			<path class="st5" d="M265.5,151.5c0,0,17.4-29.9-31-51c-10.7-4.7-23-7-46.5,1.2"/>
			<path class="st5" d="M268.7,136.2c4.8-6.7,32.6-2.3,21.8,19.3c-2,4-7,5-9,5"/>
			<path class="st5" d="M288.9,156.7c0,0,8,1.6,13.6,7.8c4.1,4.5,6.4,12.3,6,19c-1,16-10.6,22.9-18,25c-7,2-24.1,4.1-31-7
				c-5-8-4-15-4-15"/>
			<path class="st5" d="M198.5,221.5c0,0-3.3,24.4,19,30c8,2,15-1,15-1"/>
			<path class="st5" d="M284.5,210.5c0,0,9,36-20,46s-35-10-35-10"/>
		</g>
		<circle class="st0" cx="211" cy="133" r="2"/>
		<ellipse transform="matrix(0.6492 -0.7606 0.7606 0.6492 -54.1355 290.6111)" class="st0" cx="288" cy="204" rx="2" ry="2"/>
		<ellipse transform="matrix(0.6492 -0.7606 0.7606 0.6492 -32.5505 295.4142)" class="st0" cx="304" cy="183" rx="2" ry="2"/>
		<ellipse transform="matrix(0.6492 -0.7606 0.7606 0.6492 -47.1877 292.852)" class="st0" cx="293.9" cy="197.6" rx="1" ry="1"/>
		<ellipse transform="matrix(0.6492 -0.7606 0.7606 0.6492 -44.1921 296.1714)" class="st0" cx="299" cy="196" rx="1" ry="1"/>
		<ellipse transform="matrix(0.6492 -0.7606 0.7606 0.6492 -54.542 279.7301)" class="st0" cx="276" cy="199" rx="1" ry="1"/>
		<ellipse transform="matrix(0.6492 -0.7606 0.7606 0.6492 -23.2817 203.5138)" class="st0" cx="209" cy="127" rx="1" ry="1"/>
		<circle class="st0" cx="126" cy="226" r="2"/>
		<ellipse transform="matrix(0.6492 -0.7606 0.7606 0.6492 -123.8336 171.4862)" class="st0" cx="124" cy="220" rx="1" ry="1"/>
		<path class="st6" d="M179.5,234.8c0,0,7.5,10.8,21.5,5"/>
	</g>
	<circle class="st0" cx="218.5" cy="200.5" r="0.5"/>
	<circle class="st0" cx="213.5" cy="203.5" r="0.5"/>
	<circle class="st0" cx="182.5" cy="191.5" r="0.5"/>
	<circle class="st0" cx="187.5" cy="190.5" r="0.5"/>
	<circle class="st0" cx="183.5" cy="188.5" r="0.5"/>
	<circle class="st0" cx="157.5" cy="201.5" r="0.5"/>
	<circle class="st0" cx="163.5" cy="202.5" r="0.5"/>
	<circle class="st0" cx="151" cy="198" r="1"/>
	<circle class="st0" cx="177.5" cy="188.5" r="0.5"/>
	<circle class="st0" cx="190.5" cy="189.5" r="0.5"/>
	<circle class="st0" cx="223.5" cy="195.5" r="0.5"/>
	<circle class="st0" cx="221" cy="198" r="1"/>
	<circle class="st0" cx="188" cy="187" r="1"/>
	<g>
		<g>
			<path class="st7" d="M172.3,106.5c13.8,4.3,21.4,18.1,18,32.1c-0.9,3.7,4.9,5.3,5.8,1.6c4.2-17.2-5.3-34.1-22.2-39.5
				C170.2,99.6,168.6,105.3,172.3,106.5L172.3,106.5z"/>
		</g>
	</g>
	<g>
		<g>
			<path class="st7" d="M65.7,143.6c10.6-3,21.4-1.8,31,3.5c3.4,1.9,6.4-3.3,3-5.2c-11-6.1-23.6-7.6-35.7-4.1
				C60.4,138.8,62,144.6,65.7,143.6L65.7,143.6z"/>
		</g>
	</g>
	<path class="st5" d="M137,141c0,0,17,13,4,30"/>
	<path class="st5" d="M261.5,224.5c0,0-13-3-19,5s-4,17-4,17"/>
</g>
<g>
	<path class="st8" d="M176,197c0,0,0,9.5,9.5,9.5s8.5-9.5,8.5-9.5"/>
	<g>
		<circle class="st9" cx="160.7" cy="188.7" r="10"/>
		<circle class="eye" cx="160.7" cy="188.7" r="5"/>
		<g>
			<path class="st10" d="M163.2,194.9c-3.1-0.1-6.2-0.4-9-1.7c-1.2-0.6-2.4-1.3-3.4-2.3c1.1,4.4,5,7.7,9.7,7.7
				c3.4,0,6.4-1.7,8.2-4.3c-0.1,0-0.2,0.1-0.3,0.1C166.7,194.8,164.9,194.9,163.2,194.9z"/>
		</g>
		<circle class="st11" cx="160.7" cy="188.7" r="10"/>
	</g>
	<g>
		<circle class="st9" cx="209.7" cy="190.7" r="10"/>
		<circle class="eye" cx="209.7" cy="190.7" r="5"/>
		<g>
			<path class="st10" d="M212.2,196.9c-3.1-0.1-6.2-0.4-9-1.7c-1.2-0.6-2.4-1.3-3.4-2.3c1.1,4.4,5,7.7,9.7,7.7
				c3.4,0,6.4-1.7,8.2-4.3c-0.1,0-0.2,0.1-0.3,0.1C215.7,196.8,213.9,196.9,212.2,196.9z"/>
		</g>
		<circle class="st11" cx="209.7" cy="190.7" r="10"/>
	</g>
</g>
</svg>
