<?xml version="1.0" encoding="utf-8"?>
<!-- Generator: Adobe Illustrator 21.1.0, SVG Export Plug-In . SVG Version: 6.00 Build 0)  -->
<svg version="1.1" id="Layer_1" xmlns="http://www.w3.org/2000/svg" xmlns:xlink="http://www.w3.org/1999/xlink" x="0px" y="0px" viewBox="0 0 350 350" style="enable-background:new 0 0 350 350;" xml:space="preserve">
<style type="text/css">
	.st0{fill:#CE1D0F;}
	.st1{fill:#A7DBD6;stroke:#5F9CB8;stroke-width:2.6009;stroke-linecap:round;stroke-linejoin:round;stroke-miterlimit:10;}
	.st2{fill:#3584A0;}
	.st3{fill:#8DB5B0;stroke:#5F9CB8;stroke-width:2.6009;stroke-linecap:round;stroke-linejoin:round;stroke-miterlimit:10;}
	.st4{fill:#5F9CB8;}
	.st5{fill:none;}
	.st6{fill:#C62222;}
	.st7{fill:#D83C35;}
	.st8{fill:#D17575;}
	.st9{fill:none;stroke:#CE1D0F;stroke-width:2.6009;stroke-linecap:round;stroke-miterlimit:10;}
	.st10{fill:#AD140C;}
	.st11{fill:#ED140A;}
	.st12{fill:#FFFFFF;}
	.st13{fill:none;stroke:#CE1D0F;stroke-linecap:round;stroke-miterlimit:10;}
	.st14{fill:#EFA66A;stroke:#B26919;stroke-width:2;stroke-linecap:round;stroke-miterlimit:10;}
	.st15{fill:none;stroke:#B26919;stroke-width:2;stroke-linecap:round;stroke-miterlimit:10;}
	.st16{fill:#B26919;}
	.st17{fill:none;stroke:#AD1912;stroke-width:2.6009;stroke-linecap:round;stroke-miterlimit:10;}
	.st18{fill:#FFFFFF;stroke:#AF4747;stroke-width:1.0345;stroke-miterlimit:10;}
	.st19{fill:#EFEFEF;}
    
    /*øye*/
    
@keyframes blink {
  0% { height: 5px; }
  3% { transform: translate(0px, 5px); height: 1px; }
  5% { transform: translate(0px, 0px); height: 5px; }
}

.eye {
  height: 20px;
  width: 20px;
  animation-name: blink;
  animation-duration: 4s;
  animation-iteration-count: infinite;
}
    /*arm V*/
    
    @-webkit-keyframes swinging{
    0%{-webkit-transform: rotate(10deg);}
    50%{-webkit-transform: rotate(0deg)}
    100%{-webkit-transform: rotate(10deg);}
}
 
@keyframes swinging{
    0%{transform: rotate(10deg);}
    50%{transform: rotate(0deg)}
    100%{transform: rotate(10deg);}
}
 
#armV{
    -webkit-transform-origin: 90% 30%;
    transform-origin: 90% 30%;
    -webkit-animation: swinging 3.5s ease-in-out forwards infinite;
    animation: swinging 3.5s ease-in-out forwards infinite;
}
    
      /*arm H*/
    
    @-webkit-keyframes swinging{
    0%{-webkit-transform: rotate(7deg);}
    50%{-webkit-transform: rotate(0deg)}
    100%{-webkit-transform: rotate(7deg);}
}
 
@keyframes swinging{
    0%{transform: rotate(7deg);}
    50%{transform: rotate(0deg)}
    100%{transform: rotate(7deg);}
}
 
#armH{
    -webkit-transform-origin: 10% 10%;
    transform-origin: 10% 10%;
    -webkit-animation: swinging 3.5s ease-in-out forwards infinite;
    animation: swinging 3.5s ease-in-out forwards infinite;
}
    
</style>
<g id="armH">
	<g>
		<g>
			<path class="st0" d="M242.4,249.5c4.9,10.2,1.3,21.6,2.5,32.3c0.7,6,3.9,16.4,12,13.6c1.6-0.5,0.9-3.1-0.7-2.5
				c-10.6,3.7-8.9-20-8.7-24.8c0.3-6.9,0.2-13.5-2.9-19.9C243.9,246.7,241.6,248,242.4,249.5L242.4,249.5z"/>
		</g>
	</g>
	<g>
		<g>
			<path class="st0" d="M257.8,293.7c-0.2-2.2,0.1-4.2,0.9-6.3c-0.8,0.1-1.6,0.2-2.4,0.3c0.9,1.7-0.3,2.7-0.9,4.3
				c-0.4,1.1-0.3,2.2,0.7,2.9c2,1.3,5.4-1.7,7,0.6c0.4-0.7,0.7-1.3,1.1-2c-2.1,0.3-4.2,0-6.2-0.9c0.2,0.5,0.4,1,0.6,1.5
				c0.7-1.6,1.8-2.9,3.3-3.9c-0.6-0.6-1.2-1.2-1.8-1.8c-0.9,1.4-2,2.7-3.3,3.7c-1.3,1,0,3.2,1.3,2.2c1.7-1.3,3.1-2.8,4.3-4.6
				c0.7-1.1-0.7-2.5-1.8-1.8c-2.1,1.3-3.5,3.1-4.5,5.4c-0.2,0.5,0.1,1.2,0.6,1.5c2.4,1.1,4.9,1.6,7.5,1.3c0.9-0.1,1.8-1.1,1.1-2
				c-1.6-2.2-4.2-2.4-6.6-1.8c-0.3,0.1-0.5,0.1-0.8,0.2c-0.8,0.2,0,0,0.2-0.2c0.4-0.4,0.7-1.2,0.9-1.8c0.4-1.4,0.2-2.9-0.5-4.2
				c-0.6-1.1-2-0.6-2.4,0.3c-0.9,2.2-1.3,4.6-1,6.9C255.4,295.3,258,295.3,257.8,293.7L257.8,293.7z"/>
		</g>
	</g>
</g>
<g id="armV">
	<g>
		<g>
			<path class="st0" d="M110.2,265c4.8,12.3,3.4,26.6-4.4,37.4c-6.2,8.5-18.7,15.8-14.6,28.1c0.5,1.6,3,0.9,2.5-0.7
				c-2.8-8.2,3.7-14.5,8.9-19.9c4.1-4.2,7.5-8.6,9.8-14c4.2-10.1,4.3-21.4,0.3-31.6C112.1,262.8,109.6,263.5,110.2,265L110.2,265z"
				/>
		</g>
	</g>
	<g>
		<g>
			<path class="st0" d="M91.8,330.7c1,0.6,2.1,1.3,3.1,1.9c0.2-0.8,0.4-1.6,0.7-2.4c-3.5-0.1-4.5,3.5-4.6,6.3
				c0.9-0.1,1.7-0.2,2.6-0.3c-0.4-1.8-0.6-3.6-0.4-5.5c0.1-0.7-0.6-1.3-1.3-1.3c-1.6,0.1-3.2,0.2-4.8,0.4c0.1,0.9,0.2,1.7,0.3,2.6
				c1.1-0.4,2.3-0.8,3.4-1.1c1.6-0.5,0.9-3-0.7-2.5c-1.1,0.4-2.3,0.8-3.4,1.1c-1.3,0.4-1.2,2.7,0.3,2.6c1.6-0.1,3.2-0.2,4.8-0.4
				c-0.4-0.4-0.9-0.9-1.3-1.3c-0.2,2.1,0,4.2,0.5,6.2c0.4,1.5,2.5,1.1,2.6-0.3s0.1-3.8,2-3.7c1.3,0,1.7-1.8,0.7-2.4
				s-2.1-1.3-3.1-1.9C91.6,327.6,90.3,329.8,91.8,330.7L91.8,330.7z"/>
		</g>
	</g>
</g>
<g id="bein">
	<g>
		<path class="st0" d="M162.7,298.2c2.7,12.6,4.5,25.4,5.6,38.2c0.1,0.8,0.1,1.8-0.5,2.4c-0.5,0.5-1.3,0.6-2.1,0.5
			c-2.5-0.1-5.2-1-7.5-0.1c-2.3,1-2.9,5.2-0.4,5.6c0.9,0.1,1.8-0.3,2.5-0.8c2.1-1.3,4.1-2.7,6-4.4"/>
		<g>
			<path class="st0" d="M161.4,298.5c2,9.3,3.5,18.7,4.6,28.2c0.2,1.9,0.4,3.8,0.6,5.8c0.4,3.8,0.8,5.5-3.7,5.2
				c-2-0.2-4.1-0.4-5.8,0.7c-2.2,1.4-3.4,5.2-1.1,7.1c3.3,2.7,8.9-2.9,11.1-4.8c1.3-1.1-0.6-2.9-1.8-1.8c-1.2,1-2.5,2-3.8,3
				c-0.6,0.4-1.2,0.8-1.9,1.2c0.5-0.9,1-1.9,1.5-2.8c1.5-0.7,4.3,0.9,6,0.4c3.2-1,2.4-4.5,2.2-7c-1.1-12-2.9-23.9-5.4-35.6
				C163.6,296.2,161.1,296.9,161.4,298.5L161.4,298.5z"/>
		</g>
	</g>
	<g>
		<path class="st0" d="M198,296.5c-1.2,14.1-2.7,28.2-4.7,42.2c2.2-3.6,8.1-4.1,11-0.9c1,1.2,1.6,3.1,0.6,4.2
			c-0.9,0.9-2.4,0.9-3.6,0.7c-3.2-0.6-6.3-1.8-9-3.6"/>
		<g>
			<path class="st0" d="M196.7,296.5c-1.2,14-2.7,28-4.6,41.9c-0.2,1.5,1.5,2.2,2.4,1c1-1.3,3.1-2.4,4.7-2.4
				c2.5,0.1,5.7,4.5,2.1,4.3c-2.9-0.1-5.9-1.9-8.3-3.3c-1.4-0.9-2.7,1.4-1.3,2.2c3.2,2,8.5,4.9,12.4,3.7c2.5-0.7,3.2-3.2,2.2-5.5
				c-2.5-5.9-10.7-4.6-14-0.4c0.8,0.3,1.6,0.7,2.4,1c1.9-14.1,3.5-28.3,4.7-42.6C199.4,294.8,196.8,294.8,196.7,296.5L196.7,296.5z"
				/>
		</g>
	</g>
</g>
<g id="kropp_1_">
	<path class="st1" d="M132.2,14.6c2.5,0.8,5.1,0.8,7.7,0.4c0-0.5,0.1-0.7,0.1-0.7s-2.6-8.7-12.1-10.4c-1.2-0.2-2.4,0.2-3.6,1
		c0.1,0.8,0.2,1.6,0.4,2.4C125.6,10.8,128.7,13.5,132.2,14.6z"/>
	<path class="st2" d="M62.7,22c0,0,23.4-9.5,30.3-16.5c0,0,1.7-0.9,1.7,0s-3.5,13-13,15.6S72.3,23.8,62.7,22z"/>
	<path class="st1" d="M82.2,22.1c-6.7,3.1-14.8,3.1-21.6,0C67.3,25.2,75.4,25.2,82.2,22.1c6.7-3.1,12-9.3,14-16.4
		C94.2,12.8,88.9,19,82.2,22.1z"/>
	<path class="st2" d="M125.6,5.1c0,0,4.3-0.9,7.8,1.7s5.2,6.9,5.2,6.9s-2.6,1.7-9.5-1.7C125.2,10.1,125.6,5.1,125.6,5.1z"/>
	<g id="kropp">
		<path class="st3" d="M138.1,52.4c0-17.6,1.3-33.8,1.7-37.4c-2.6,0.5-5.2,0.4-7.7-0.4c-3.5-1.1-6.5-3.8-7.5-7.3
			c-0.2-0.8-0.3-1.6-0.4-2.4c-7.7,5.6-12.9,31.9-12.9,31.9s-10.4-39-19.9-31.2S60.1,22,60.1,22s-2.7,1,18.2,35.5
			c19.9,32.9,6.1,67.6,6.1,67.6c50.3,26,69.4-25.1,69.4-25.1S138.1,72.3,138.1,52.4z"/>
		<g>
			<g>
				<path class="st4" d="M131.8,40.3c2.2,0.7,4.6,0.7,6.8,0c1.6-0.5,0.9-3-0.7-2.5c-1.8,0.6-3.6,0.6-5.4,0
					C130.9,37.3,130.2,39.8,131.8,40.3L131.8,40.3z"/>
			</g>
		</g>
		<g>
			<g>
				<path class="st4" d="M132.3,46.5c2.1,0.3,4.1,0.2,6-0.5c1.6-0.6,0.9-3.1-0.7-2.5c-1.5,0.5-3,0.8-4.6,0.5
					c-0.7-0.1-1.4,0.2-1.6,0.9C131.2,45.6,131.6,46.4,132.3,46.5L132.3,46.5z"/>
			</g>
		</g>
		<g>
			<g>
				<path class="st4" d="M131.6,53.2c2.4,0,5.5,0.3,7.4-1.6c1.2-1.2-0.6-3-1.8-1.8c-1.3,1.2-4,0.8-5.6,0.8
					C129.9,50.6,129.9,53.2,131.6,53.2L131.6,53.2z"/>
			</g>
		</g>
		<g>
			<g>
				<path class="st4" d="M131.2,59.7c2.8,0.7,5.5,0.3,8-1.1c1.5-0.8,0.1-3.1-1.3-2.2c-1.9,1.1-3.9,1.3-6,0.8
					C130.3,56.8,129.6,59.3,131.2,59.7L131.2,59.7z"/>
			</g>
		</g>
		<g>
			<g>
				<path class="st4" d="M132.5,66.4c2.7,0,5.3-0.5,7.7-1.7c1.5-0.7,0.2-3-1.3-2.2c-2,1-4.2,1.4-6.4,1.4
					C130.8,63.7,130.8,66.3,132.5,66.4L132.5,66.4z"/>
			</g>
		</g>
		<g>
			<g>
				<path class="st4" d="M131.1,72.1c3.1,0.5,6,0,8.8-1.5c1.5-0.8,0.2-3.1-1.3-2.2c-2.1,1.2-4.4,1.6-6.8,1.2
					C130.1,69.4,129.4,71.9,131.1,72.1L131.1,72.1z"/>
			</g>
		</g>
		<g>
			<g>
				<path class="st4" d="M128.4,77.5c4.7,0.6,9.3,0.3,13.5-2c1.5-0.8,0.1-3.1-1.3-2.2c-3.8,2.1-8,2.2-12.1,1.7
					C126.7,74.7,126.7,77.3,128.4,77.5L128.4,77.5z"/>
			</g>
		</g>
		<g>
			<g>
				<path class="st4" d="M124.4,83.7c7.6,1.9,15.1,1.2,22.2-1.9c1.5-0.7,0.2-2.9-1.3-2.2c-6.5,2.8-13.4,3.3-20.2,1.6
					C123.4,80.8,122.7,83.3,124.4,83.7L124.4,83.7z"/>
			</g>
		</g>
		<g>
			<g>
				<path class="st4" d="M133.9,35.1c1.6,0.4,3,0.8,4.6,0.3s0.9-3-0.7-2.5c-1.1,0.4-2.1,0-3.2-0.3C133,32.2,132.3,34.7,133.9,35.1
					L133.9,35.1z"/>
			</g>
		</g>
		<g>
			<path class="st5" d="M248.3,76.8l0.1-0.2l0.9-1.6c-0.5-0.2-1.1-0.4-1.7-0.6c0.1,0.8,0.3,1.6,0.5,2
				C248.2,76.6,248.2,76.7,248.3,76.8z"/>
			<path class="st6" d="M215.9,250.2c-10.2,7-20.9,13.9-33,16.6c-19.6,4.4-40.3-3-56.8-14.6c-14.4-10.1-26.6-23.5-41.4-32.6
				c0.9,2.5,1.8,5,2.8,7.5c26,65,77.2,71.1,77.2,71.1s60.7,12.1,82.4-57.2c1-3.2,1.9-6.4,2.8-9.5c-0.5,0.2-1,0.3-1.6,0.5
				C236.4,235.8,226.1,243.2,215.9,250.2z"/>
			<path class="st7" d="M237,105.3h-0.8c4.8-0.8,9.9-0.4,13.8,3.5c9.5,9.5,13.9,19.1,13.9,19.1s17.3-4.3,19.1-6.9
				c5.6-8.5-4.6-32.4-27.8-43.5c5-4,3.5-15.5,3.5-15.5C246.5,40.3,211,40.3,211,40.3c-36.4,0-50.3,14.7-59,26.9
				c-7.9,11-12.1,24.3-24.3,32.1s-40.3,8.2-40.3,8.2s-24,50.5-2.8,112.1c14.9,9.1,27.1,22.5,41.4,32.6c16.4,11.6,37.1,19,56.8,14.6
				c12.1-2.7,22.8-9.6,33-16.6s20.5-14.3,32.3-18.2c0.5-0.2,1-0.3,1.6-0.5C267.2,168.3,252.7,134.2,237,105.3z M249.3,75l-0.9,1.6
				l-0.1,0.2c-0.1-0.1-0.1-0.1-0.2-0.3c-0.2-0.4-0.4-1.2-0.5-2C248.2,74.6,248.7,74.8,249.3,75z"/>
		</g>
		<path class="st8" d="M249.3,75l-0.9,1.6l-0.1,0.2c-0.1-0.1-0.1-0.1-0.2-0.3c-0.2-0.4-0.4-1.2-0.5-2
			C248.2,74.6,248.7,74.8,249.3,75z"/>
		<path class="st8" d="M249.3,75l-0.9,1.6c-0.1,0-0.2-0.1-0.3-0.1c-0.2-0.4-0.4-1.2-0.5-2C248.2,74.6,248.7,74.8,249.3,75z"/>
		<g>
			<path class="st8" d="M249.3,75l-0.9,1.6l-0.1,0.2c-0.1-0.1-0.1-0.1-0.2-0.3c-0.2-0.4-0.4-1.2-0.5-2
				C248.2,74.6,248.7,74.8,249.3,75z"/>
		</g>
		<path class="st9" d="M185,104.4c20.8-48.5,69.4-26.9,69.4-26.9c6.9-2.6,5.2-16.5,5.2-16.5c-12.1-21.7-47.7-21.7-47.7-21.7
			c-36.4,0-50.3,14.7-59,26.9c-7.9,11-12.1,24.3-24.3,32.1s-40.3,8.2-40.3,8.2s-26,54.6,0,119.6s77.2,71.1,77.2,71.1
			s60.7,12.1,82.4-57.2s6.5-105.3-10-135.7"/>
		<g>
			<path class="st10" d="M265.5,124.5c2.2,0.6,2.7-0.2,6.9-0.4c1.1-0.1,3.1-1.1,4.5-1.5c1.4-0.3,2.3-1,3.5-1.7s2.6-2.2,2.6-3.5
				c-4-1.3-7.2-1.3-11.3,0c-1.4,0.4-4.4,2.3-5.3,3.3s-1.5,2.3-1.1,3.5"/>
			<g>
				<path class="st10" d="M265.1,125.7c3.4,0.8,7.4-0.3,10.6-1.4s7.6-2.6,8.3-6.5c0.1-0.7-0.2-1.3-0.8-1.5
					c-4.5-1.3-9.2-1.5-13.5,0.7c-2.9,1.4-6.2,3.6-5.8,7.2c0.2,1.5,2.6,1.5,2.4,0c-0.3-2.8,3.4-4.7,5.6-5.6c3.5-1.3,7.1-1.1,10.6,0
					c-0.3-0.5-0.6-1-0.8-1.5c-0.6,3.3-5.8,4.7-8.5,5.5c-2,0.6-5.4,1.2-7.4,0.7C264.3,123,263.6,125.3,265.1,125.7L265.1,125.7z"/>
			</g>
		</g>
		<g>
			<path class="st10" d="M253,76.7c1.4-1.3,4.8-6.1,4.8-7.9c0-1.2-0.1-3.2,0-4.3c0.1-1.2,0-2.9-0.9-3.5c-2.8,2.3-5.2,2.6-6.1,6.1
				c-0.3,1.2-1.1,5-0.9,6.1C250.2,74.3,253,76.7,253,76.7z"/>
			<g>
				<path class="st10" d="M253.7,77.4c2-2,4.4-5,5-7.9c0.5-2.4,0.7-7.3-1.1-9.2c-0.4-0.4-1-0.3-1.4,0c-1.7,1.3-3.9,2.3-5.2,4
					c-1.2,1.6-1.5,3.7-1.8,5.6c-0.6,3.6,0.3,5.1,3.1,7.5c1,0.9,2.4-0.6,1.4-1.4c-0.7-0.6-1.6-1.3-2.2-2.1c-1.1-1.5-0.5-3.2-0.1-4.9
					c0.4-1.9,0.9-3.4,2.5-4.7c1.2-0.9,2.5-1.6,3.6-2.5c-0.5,0-1,0-1.4,0c1.3,1.3,0.8,6.6,0.2,8.2c-0.8,2.2-2.5,4.4-4.1,6
					C251.4,76.9,252.8,78.4,253.7,77.4z"/>
			</g>
		</g>
		<g>
			<g>
				<path class="st0" d="M285.3,116.3c-5.2-2.5-11-3.2-16.4-0.8c-4.3,1.9-7.8,6.4-5.4,11.1c0.8,1.5,3,0.2,2.2-1.3
					c-2.4-4.6,3.7-7.6,7.1-8.3c4-0.8,7.5-0.2,11.1,1.6C285.5,119.3,286.8,117,285.3,116.3L285.3,116.3z"/>
			</g>
		</g>
		<g>
			<g>
				<path class="st0" d="M258.2,58.7c-5.2-0.4-8.3,3.7-10.4,7.9c-1.2,2.5-1.4,7.4,0.2,9.9c0.9,1.4,3.2,0.1,2.2-1.3
					c-1.1-1.7-0.9-5.4-0.3-7.1c1.3-3.5,4.2-7.1,8.2-6.8C259.9,61.5,259.9,58.9,258.2,58.7L258.2,58.7z"/>
			</g>
		</g>
		<path class="st9" d="M224,109.6c0,0,17.3-11.3,26.9-1.7c9.5,9.5,13.9,19.1,13.9,19.1s17.3-4.3,19.1-6.9
			c8.2-12.2-16.5-53.8-65.9-45.1c-12.2,2.1-25.1,9.5-35.5,34.7"/>
		<circle class="st0" cx="240.4" cy="208.4" r="1.3"/>
		<circle class="st0" cx="239.6" cy="218" r="1.3"/>
		<circle class="st0" cx="249.1" cy="206.7" r="1.3"/>
		<circle class="st0" cx="244.8" cy="225.8" r="2.2"/>
		<circle class="st0" cx="248.7" cy="214.9" r="1.7"/>
		<circle class="st0" cx="247.4" cy="185" r="1.3"/>
		<circle class="st0" cx="251.7" cy="192.8" r="1.3"/>
		<circle class="st0" cx="253" cy="169.9" r="1.7"/>
		<circle class="st0" cx="86.4" cy="201.1" r="1.6"/>
		<circle class="st0" cx="83.5" cy="186.8" r="1.3"/>
		<circle class="st0" cx="81.8" cy="175.5" r="2.2"/>
		<circle class="st0" cx="89.6" cy="192" r="1.3"/>
		<circle class="st0" cx="87.4" cy="183.7" r="0.9"/>
		<circle class="st0" cx="93" cy="207.8" r="0.4"/>
		<circle class="st0" cx="87" cy="176.4" r="1.3"/>
		<circle class="st0" cx="84.8" cy="171.6" r="0.9"/>
		<circle class="st0" cx="94.2" cy="216.8" r="0.8"/>
		<circle class="st0" cx="177.2" cy="53.3" r="1.3"/>
		<circle class="st0" cx="185" cy="52.4" r="1.3"/>
		<circle class="st0" cx="191.5" cy="48.5" r="1.7"/>
		<circle class="st0" cx="199.7" cy="44.6" r="1.3"/>
		<circle class="st0" cx="183.7" cy="47.6" r="0.9"/>
		<circle class="st0" cx="167.2" cy="59.8" r="0.9"/>
		<circle class="st0" cx="177.6" cy="59.8" r="0.9"/>
		<circle class="st0" cx="192.3" cy="59.8" r="0.9"/>
		<circle class="st0" cx="201" cy="49.4" r="0.9"/>
		<circle class="st0" cx="194.9" cy="54.6" r="0.9"/>
		<circle class="st0" cx="208.4" cy="46.3" r="1.3"/>
		<ellipse class="st11" cx="242.6" cy="195.4" rx="0" ry="0.4"/>
		<circle class="st0" cx="95.2" cy="198.5" r="0.9"/>
		<g>
			<g>
				<path class="st4" d="M134.9,29.5c1.5,0.2,3,0.4,4.4-0.1c0.7-0.2,1.1-0.9,0.9-1.6c-0.2-0.6-0.9-1.2-1.6-0.9c-1,0.4-2,0.2-3,0.1
					c-0.7-0.1-1.4,0.2-1.6,0.9C133.8,28.5,134.2,29.4,134.9,29.5L134.9,29.5z"/>
			</g>
		</g>
		<g>
			<g>
				<path class="st12" d="M190.8,110.9c5-14.4,18.1-24.9,33.4-26.4c1.9-0.2,1.9-3.2,0-3c-16.6,1.6-30.8,12.8-36.3,28.6
					C187.3,111.9,190.2,112.7,190.8,110.9L190.8,110.9z"/>
			</g>
		</g>
		<g>
			<g>
				<path class="st12" d="M233.2,114.8c6.4,11,10.3,23,11.5,35.6c0.2,1.9,3.2,1.9,3,0c-1.3-13.2-5.3-25.7-12-37.1
					C234.8,111.6,232.2,113.1,233.2,114.8L233.2,114.8z"/>
			</g>
		</g>
		<path class="st13" d="M162,209c0,0-4,7-9,7"/>
		<path class="st13" d="M189,212c0,0,3.5,4.5,9.5,5.5"/>
		<g id="plaster_2_">
			<path class="st14" d="M94.9,193.7L121,143c2.3-4.4,7.7-6.1,12.1-3.9l0,0c4.4,2.3,6.1,7.7,3.9,12.1L110.9,202
				c-2.3,4.4-7.7,6.1-12.1,3.9l0,0C94.4,203.6,92.7,198.1,94.9,193.7z"/>
			<line class="st15" x1="114.3" y1="186.8" x2="104.5" y2="181.8"/>
			<line class="st15" x1="125.7" y1="164.6" x2="115.9" y2="159.5"/>
			
				<ellipse transform="matrix(0.4582 -0.8889 0.8889 0.4582 -85.5239 200.3674)" class="st16" cx="121.6" cy="170.3" rx="1" ry="1"/>
			<ellipse transform="matrix(0.9888 -0.1493 0.1493 0.9888 -25.4431 19.4772)" class="st16" cx="117" cy="179.2" rx="1" ry="1"/>
			<ellipse transform="matrix(0.9888 -0.1493 0.1493 0.9888 -24.5146 19.2266)" class="st16" cx="115.8" cy="172.9" rx="1" ry="1"/>
			
				<ellipse transform="matrix(0.4582 -0.8889 0.8889 0.4582 -86.1028 192.1277)" class="st16" cx="114.5" cy="166.7" rx="1" ry="1"/>
			<ellipse transform="matrix(0.4582 -0.8889 0.8889 0.4582 -96.5046 192.8847)" class="st16" cx="110" cy="175.6" rx="1" ry="1"/>
		</g>
	</g>
	<g>
		<g>
			<path class="st4" d="M135.3,20.1c1.4-0.2,2.7,0.1,4-0.2c1.6-0.4,0.9-2.9-0.7-2.5c-1.1,0.3-2.2,0-3.3,0.1
				c-0.7,0.1-1.3,0.5-1.3,1.3C134,19.4,134.6,20.1,135.3,20.1L135.3,20.1z"/>
		</g>
	</g>
	<g>
		<g>
			<path class="st4" d="M135.2,24.2c1.5,0.3,2.7,0.3,4.2,0c0.7-0.1,1.1-1,0.9-1.6c-0.2-0.7-0.9-1-1.6-0.9c-1,0.2-1.8,0.2-2.8,0
				c-0.7-0.1-1.4,0.2-1.6,0.9C134.1,23.2,134.5,24,135.2,24.2L135.2,24.2z"/>
		</g>
	</g>
</g>
<g id="ansikt">
	<line class="st17" x1="166.2" y1="211.6" x2="184.8" y2="211.6"/>
	<g>
		<circle class="st18" cx="150.4" cy="203" r="10.3"/>
		<circle class="eye" cx="150.4" cy="203" r="5.2"/>
		<g>
			<path class="st19" d="M153,209.4c-3.2-0.1-6.4-0.5-9.3-1.8c-1.3-0.6-2.5-1.4-3.5-2.4c1.1,4.5,5.2,7.9,10,7.9
				c3.5,0,6.6-1.8,8.5-4.5c-0.1,0-0.2,0.1-0.3,0.1C156.6,209.4,154.8,209.4,153,209.4z"/>
		</g>
		<circle class="st9" cx="150.4" cy="203" r="10.3"/>
	</g>
	<g>
		<circle class="st18" cx="201.1" cy="205.1" r="10.3"/>
		<circle class="eye" cx="201.1" cy="205.1" r="5.2"/>
		<g>
			<path class="st19" d="M203.6,211.5c-3.2-0.1-6.4-0.5-9.3-1.8c-1.3-0.6-2.5-1.4-3.5-2.4c1.1,4.5,5.2,7.9,10,7.9
				c3.5,0,6.6-1.8,8.5-4.5c-0.1,0-0.2,0.1-0.3,0.1C207.3,211.4,205.5,211.5,203.6,211.5z"/>
		</g>
		<circle class="st9" cx="201.1" cy="205.1" r="10.3"/>
	</g>
	<path class="st0" d="M196.8,195.8c0,0,7.7,7.7,11.7,8.7s3,1,3,1S210,192.1,196.8,195.8z"/>
	<path class="st0" d="M140.9,200.8c0,0,10.9-0.6,14.3-2.9c3.4-2.3,2.7-1.6,2.7-1.6S146.9,188.5,140.9,200.8z"/>
	<path class="st0" d="M216,206"/>
</g>
</svg>
