<?xml version="1.0" encoding="utf-8"?>
<!-- Generator: Adobe Illustrator 21.1.0, SVG Export Plug-In . SVG Version: 6.00 Build 0)  -->
<svg version="1.1" id="Layer_1" xmlns="http://www.w3.org/2000/svg" xmlns:xlink="http://www.w3.org/1999/xlink" x="0px" y="0px"
	 viewBox="0 0 350 350" enable-background="new 0 0 350 350" xml:space="preserve">
<g>
	<g>
		<g>
			<path fill="#AF4747" d="M249,214.6c7,15.9,12.8,32.3,17.5,49.1c0.5,1.9,3.4,1.1,2.9-0.8c-4.8-17-10.7-33.6-17.8-49.8
				C250.8,211.4,248.3,212.9,249,214.6L249,214.6z"/>
		</g>
	</g>
	<g>
		<g>
			<path fill="#AF4747" d="M267.6,264.7c2.3,0.8,4.8,0.5,6.9-0.8c-0.5-0.9-1-1.7-1.5-2.6c-1.3,0.8-2.6,1.4-4,1.7
				c-1,0.2-1.3,1.4-0.9,2.2c0.6,1.2,1.2,2.3,1.8,3.5c0.8-0.6,1.6-1.2,2.4-1.8c-1-1.3-2-2.5-2.9-3.8c-0.6-0.7-2-0.5-2.4,0.3
				c-0.6,1.3-1.2,2.5-1.8,3.8c0.9,0,1.7,0,2.6,0c-0.5-0.8,1.1-1.1,1.6-0.9c1.1,0.4,2,1.5,2.7,2.3c1.3,1.4,3.4-0.7,2.1-2.1
				c-1.7-1.9-4-4-6.7-3.1c-2.2,0.7-3.6,3.3-2.4,5.4c0.5,0.9,2.1,1,2.6,0c0.6-1.3,1.2-2.5,1.8-3.8c-0.8,0.1-1.6,0.2-2.4,0.3
				c1,1.3,2,2.5,2.9,3.8c1.1,1.4,3.1-0.4,2.4-1.8c-0.6-1.2-1.2-2.3-1.8-3.5c-0.3,0.7-0.6,1.5-0.9,2.2c1.7-0.3,3.3-1,4.8-2
				c1.6-1.1,0.1-3.6-1.5-2.6c-1.5,0.9-3,1.1-4.6,0.5C266.6,261.1,265.8,264,267.6,264.7L267.6,264.7z"/>
		</g>
	</g>
	<g>
		<g>
			<path fill="#AF4747" d="M267.3,265.9c-0.8,1.1-0.5,3.1,0,4.3c0.3,0.8,1,1.3,1.8,1c0.7-0.2,1.3-1.1,1-1.8
				c-0.1-0.4-0.3-0.8-0.3-1.2c0-0.2,0-0.4,0-0.6c0-0.1,0-0.2,0-0.3c0,0,0,0.1,0,0.1c0.5-0.7,0.1-1.7-0.5-2.1
				C268.6,264.9,267.8,265.2,267.3,265.9L267.3,265.9z"/>
		</g>
	</g>
</g>
<path fill="#AF4747" stroke="#AF4747" stroke-miterlimit="10" d="M78.4,178.4l-0.2,0.5c0,0-0.1-0.1-0.1-0.1
	C78.2,178.6,78.3,178.5,78.4,178.4z"/>
<path fill="#AF4747" stroke="#AF4747" stroke-miterlimit="10" d="M78.4,178.4l-0.2,0.5c0,0-0.1-0.1-0.1-0.1
	C78.2,178.6,78.3,178.5,78.4,178.4z"/>
<path fill="#D89898" d="M288.5,138c0.4-0.4,0.7-0.9,1-1.5c10.4-20.8-15.1-25.7-21.2-20c-0.4-0.3-0.7-0.6-1.1-0.9
	c-1.5-10.2-9-23.3-33.8-34.2c-10.5-4.6-15.9-6.6-45.3,0.9c-0.3,0-0.6-0.1-0.9-0.1c-5.6-4.5-13.1-8.2-23.2-10.3
	c-37.7-7.7-53.2,10.8-56.9,16.2c-4.3-2.5-10.6-4.5-18.1-1.2c-14,6-13.8,23.8-13.8,23.8s0.6,0.4,0,1.1c-11,0.3-22.4,5.6-30.2,22.2
	c-4.6,9.8-2.5,29.3,11,42c3.3,3.1,10.3,8,15.7,10.2c-4.6,6.6-9,15.9-7.7,26.8c1.4,12.4,14.4,23.5,22.5,25.5
	C94,240.3,107,242,117,236c2.8-1.7,5.3-3.8,7.4-6.1c0.2,0.6,0.5,1.1,0.9,1.5c1,3.1,5,10.9,20.2,10.1c14.3-0.8,16-12,16-12
	c8.2-3.8,13.5-8.7,16.6-14c7.9,8,16,7,20.9,5.2c0.8,0.3,1.5,0.6,2.3,0.9c2.8,4.7,7.4,8.9,15.2,10.8c6.4,1.6,12.2,0,14.2-0.7
	c3.7,5.2,12.8,12.6,32.8,5.7c24.9-8.6,21-38.6,19.5-46.9c2.5-0.2,4.7-0.6,6.5-1.1c7.4-2.1,16-7,18-25
	C309.3,148.3,292,139.6,288.5,138z M111.4,91.4C111.4,91.4,111.4,91.4,111.4,91.4L111.4,91.4C111.4,91.4,111.4,91.4,111.4,91.4z
	 M229.3,229.6h0.1c0,0.1,0,0.1,0.1,0.2L229.3,229.6z"/>
<path fill="none" d="M82.4,166.7C82.4,166.7,82.4,166.7,82.4,166.7L82.4,166.7C82.4,166.7,82.4,166.7,82.4,166.7z"/>
<path fill="#D17575" d="M203.6,206.4c-17.3-3.4-35.4-2-52,3.9c-12.9,4.6-25.7,12.1-39.2,10.4c-16.4-2-29.1-19.5-26.1-35.7
	c0.9-4.6,2.7-9.5,0.4-13.6c-1.5-2.7-4.5-4.1-7.3-5.5c-8.5-4.1-17-8.7-23.7-15.3c-4.8-4.8-8.6-10.8-10.3-17.3c-0.2,0.3-0.3,0.6-0.5,1
	c-4.6,9.8-2.5,29.3,11,42c3.3,3.1,10.3,8,15.7,10.2c-4.6,6.6-9,15.9-7.7,26.8c1.4,12.4,14.4,23.5,22.5,25.5
	c7.5,1.8,20.5,3.5,30.5-2.5c2.8-1.7,5.3-3.8,7.4-6.1c0.2,0.6,0.5,1.1,0.9,1.5c1,3.1,5,10.9,20.2,10.1c14.3-0.8,16-12,16-12
	c8.2-3.8,13.5-8.7,16.6-14c7.9,8,16,7,20.9,5.2c0.8,0.3,1.5,0.6,2.3,0.9c2.8,4.7,7.4,8.9,15.2,10.8c6.4,1.6,12.2,0,14.2-0.7
	c3.7,5.2,12.8,12.6,32.8,5.7c17.7-6.1,20.9-23,20.7-35.2c-14.5,1.5-27.9,9.7-42.6,10.6C228.7,213.9,216.3,208.9,203.6,206.4z
	 M229.3,230h0.1c0,0.1,0,0.1,0.1,0.2L229.3,230z"/>
<g>
	<path fill="none" stroke="#AF4747" stroke-width="3" stroke-linecap="round" stroke-miterlimit="10" d="M107,122
		c0,0-42.5-29.5-62,12c-4.6,9.8-2.5,29.3,11,42c3.8,3.6,12.5,9.5,18,11"/>
	<path fill="none" stroke="#AF4747" stroke-width="3" stroke-linecap="round" stroke-miterlimit="10" d="M81,176
		c0,0-19.5,15.5-17,37c1.4,12.4,14.4,23.5,22.5,25.5C94,240.3,107,242,117,236s15.2-16.9,15-22c-0.5-12.5-6-18-6-18"/>
	<path fill="none" stroke="#AF4747" stroke-width="3" stroke-linecap="round" stroke-miterlimit="10" d="M75.2,110.8
		c0,0-0.2-17.8,13.8-23.8s24,6,24,6"/>
	<path fill="none" stroke="#AF4747" stroke-width="3" stroke-linecap="round" stroke-miterlimit="10" d="M106.2,89.7
		c0,0,13.8-26.7,57.8-17.7s39,49,39,49"/>
	<path fill="none" stroke="#AF4747" stroke-width="3" stroke-linecap="round" stroke-miterlimit="10" d="M182.2,200
		c0,10.7-4.6,22.1-20.7,29.5"/>
	<path fill="none" stroke="#AF4747" stroke-width="3" stroke-linecap="round" stroke-miterlimit="10" d="M124.9,230.1
		c0,0,1.6,12.4,20.6,11.4s16-19,16-19"/>
	<path fill="none" stroke="#AF4747" stroke-width="3" stroke-linecap="round" stroke-miterlimit="10" d="M264.5,132.5
		c0,0,17.4-29.9-31-51c-10.7-4.7-23-7-46.5,1.2"/>
	<path fill="none" stroke="#AF4747" stroke-width="3" stroke-linecap="round" stroke-miterlimit="10" d="M267.7,117.2
		c4.8-6.7,32.6-2.3,21.8,19.3c-2,4-7,5-9,5"/>
	<path fill="none" stroke="#AF4747" stroke-width="3" stroke-linecap="round" stroke-miterlimit="10" d="M287.9,137.7
		c0,0,8,1.6,13.6,7.8c4.1,4.5,6.4,12.3,6,19c-1,16-10.6,22.9-18,25c-7,2-24.1,4.1-31-7c-5-8-4-15-4-15"/>
	<path fill="none" stroke="#AF4747" stroke-width="3" stroke-linecap="round" stroke-miterlimit="10" d="M197.5,202.5
		c0,0-3.3,24.4,19,30c8,2,15-1,15-1"/>
	<path fill="none" stroke="#AF4747" stroke-width="3" stroke-linecap="round" stroke-miterlimit="10" d="M283.5,191.5
		c0,0,9,36-20,46s-35-10-35-10"/>
</g>
<circle fill="#AF4747" cx="210" cy="114" r="2"/>
<ellipse transform="matrix(0.6492 -0.7606 0.7606 0.6492 -40.0374 283.1864)" fill="#AF4747" cx="287" cy="185" rx="2" ry="2"/>
<ellipse transform="matrix(0.6492 -0.7606 0.7606 0.6492 -18.4523 287.9896)" fill="#AF4747" cx="303" cy="164" rx="2" ry="2"/>
<ellipse transform="matrix(0.6492 -0.7606 0.7606 0.6492 -33.0965 285.4168)" fill="#AF4747" cx="292.9" cy="178.6" rx="1" ry="1"/>
<ellipse transform="matrix(0.6492 -0.7606 0.7606 0.6492 -30.094 288.7467)" fill="#AF4747" cx="298" cy="177" rx="1" ry="1"/>
<ellipse transform="matrix(0.6492 -0.7606 0.7606 0.6492 -40.4437 272.3053)" fill="#AF4747" cx="275" cy="180" rx="1" ry="1"/>
<ellipse transform="matrix(0.6492 -0.7606 0.7606 0.6492 -9.1827 196.089)" fill="#AF4747" cx="208" cy="108" rx="1" ry="1"/>
<circle fill="#AF4747" cx="125" cy="207" r="2"/>
<ellipse transform="matrix(0.6492 -0.7606 0.7606 0.6492 -109.7348 164.0604)" fill="#AF4747" cx="123" cy="201" rx="1" ry="1"/>
<path fill="none" stroke="#AF4747" stroke-width="3" stroke-miterlimit="10" d="M178.5,215.8c0,0,7.5,10.8,21.5,5"/>
<circle fill="#AF4747" cx="217.5" cy="181.5" r="0.5"/>
<circle fill="#AF4747" cx="208.5" cy="184.5" r="0.5"/>
<circle fill="#AF4747" cx="212.5" cy="184.5" r="0.5"/>
<circle fill="#AF4747" cx="181.5" cy="172.5" r="0.5"/>
<circle fill="#AF4747" cx="186.5" cy="171.5" r="0.5"/>
<circle fill="#AF4747" cx="182.5" cy="169.5" r="0.5"/>
<circle fill="#AF4747" cx="156.5" cy="182.5" r="0.5"/>
<circle fill="#AF4747" cx="162.5" cy="183.5" r="0.5"/>
<circle fill="#AF4747" cx="150" cy="179" r="1"/>
<circle fill="#AF4747" cx="176.5" cy="169.5" r="0.5"/>
<circle fill="#AF4747" cx="189.5" cy="170.5" r="0.5"/>
<circle fill="#AF4747" cx="222.5" cy="176.5" r="0.5"/>
<circle fill="#AF4747" cx="220" cy="179" r="1"/>
<circle fill="#AF4747" cx="187" cy="168" r="1"/>
<g>
	<g>
		<path fill="#AF4747" d="M135.7,241.7c0.1,7.9,0.2,15.9,0.4,23.8c0,1.9,0.1,3.8,0.1,5.7c0,3.1-0.4,4.3-3.9,5c-3.9,0.7-8.9,0-12.9,0
			c-1.9,0-1.9,3,0,3c4.9,0,10.6,0.8,15.5-0.1c2.4-0.4,3.9-1.5,4.3-4c0.8-4.9-0.1-10.4-0.2-15.4c-0.1-6-0.2-12.1-0.3-18.1
			C138.7,239.7,135.7,239.7,135.7,241.7L135.7,241.7z"/>
	</g>
</g>
<g>
	<g>
		<path fill="#AF4747" d="M188.6,223.7c-1.5,14.8-2.6,29.6-3.2,44.5c-0.2,4.2-1.7,9.5,2.5,12c5,3,12,4.1,17.7,5.1
			c1.9,0.3,2.7-2.6,0.8-2.9c-4.4-0.8-11.3-1.4-15.1-4c-4.1-2.7-3.1-6-2.9-10.2c0.1-3,0.3-5.9,0.4-8.9c0.7-11.9,1.6-23.8,2.8-35.6
			C191.8,221.8,188.8,221.8,188.6,223.7L188.6,223.7z"/>
	</g>
</g>
<g>
	<g>
		<g>
			<path fill="#AF4747" d="M89.3,238c-6.7,8.7-13.3,17.4-20,26c-1.2,1.5,1.4,3,2.6,1.5c6.7-8.7,13.3-17.4,20-26
				C93.1,238,90.5,236.5,89.3,238L89.3,238z"/>
		</g>
	</g>
	<g>
		<g>
			<path fill="#AF4747" d="M69.4,265.1c0.3,1.8,0.5,3.6,0.8,5.3c0.1,0.8,1.1,1.2,1.8,1c0.9-0.2,1.2-1,1-1.8
				c-0.3-1.8-0.5-3.6-0.8-5.3c-0.1-0.8-1.1-1.2-1.8-1C69.6,263.5,69.3,264.3,69.4,265.1L69.4,265.1z"/>
		</g>
	</g>
	<g>
		<g>
			<path fill="#AF4747" d="M70.1,263.7c-1.5,1-3.1,1.8-4.8,2.5c-0.8,0.3-1.3,1-1,1.8c0.2,0.7,1.1,1.4,1.8,1c1.9-0.8,3.8-1.7,5.5-2.8
				C73.3,265.3,71.8,262.7,70.1,263.7L70.1,263.7z"/>
		</g>
	</g>
	<g>
		<g>
			<path fill="#AF4747" d="M71.1,263.4c-1.7-0.5-3.4-1-5.1-1.5c-1.9-0.5-2.6,2.3-0.8,2.9c1.7,0.5,3.4,1,5.1,1.5
				C72.1,266.8,72.9,263.9,71.1,263.4L71.1,263.4z"/>
		</g>
	</g>
	<g>
		<g>
			<path fill="#AF4747" d="M68.9,264.9c-0.7,1.7-2.1,3-2.3,4.8c-0.1,0.8,0.8,1.5,1.5,1.5c0.9,0,1.4-0.7,1.5-1.5
				c0.1-0.6,0.8-1.3,1.1-1.8c0.4-0.7,0.8-1.5,1.1-2.3c0.3-0.7-0.3-1.6-1-1.8C69.9,263.7,69.2,264.2,68.9,264.9L68.9,264.9z"/>
		</g>
	</g>
</g>
<g>
	<g>
		<path fill="#FFFFFF" d="M171.3,87.5c13.8,4.3,21.4,18.1,18,32.1c-0.9,3.7,4.9,5.3,5.8,1.6c4.2-17.2-5.3-34.1-22.2-39.5
			C169.2,80.6,167.6,86.3,171.3,87.5L171.3,87.5z"/>
	</g>
</g>
<g>
	<g>
		<path fill="#FFFFFF" d="M64.7,124.6c10.6-3,21.4-1.8,31,3.5c3.4,1.9,6.4-3.3,3-5.2c-11-6.1-23.6-7.6-35.7-4.1
			C59.4,119.8,61,125.6,64.7,124.6L64.7,124.6z"/>
	</g>
</g>
<path fill="none" stroke="#AF4747" stroke-width="3" stroke-linecap="round" stroke-miterlimit="10" d="M136,122c0,0,17,13,4,30"/>
<path fill="none" stroke="#AF4747" stroke-width="3" stroke-linecap="round" stroke-miterlimit="10" d="M260.5,205.5c0,0-13-3-19,5
	s-4,17-4,17"/>
<g id="plaster">
	<path fill="#EFA66A" stroke="#B26919" stroke-width="2" stroke-linecap="round" stroke-miterlimit="10" d="M232.7,142.6l-48.4-30.2
		c-4.2-2.6-5.5-8.2-2.9-12.4l0,0c2.6-4.2,8.2-5.5,12.4-2.9l48.4,30.2c4.2,2.6,5.5,8.2,2.9,12.4l0,0
		C242.4,144,236.9,145.3,232.7,142.6z"/>
	<ellipse transform="matrix(0.5291 -0.8486 0.8486 0.5291 2.7508 233.255)" fill="#B26919" cx="211.5" cy="114.1" rx="1" ry="1"/>
	
		<ellipse transform="matrix(0.9977 -6.817219e-02 6.817219e-02 0.9977 -7.6306 15.277)" fill="#B26919" cx="220" cy="119.4" rx="1" ry="1"/>
	
		<ellipse transform="matrix(0.9977 -6.817219e-02 6.817219e-02 0.9977 -7.6965 14.8453)" fill="#B26919" cx="213.7" cy="120.2" rx="1" ry="1"/>
	<ellipse transform="matrix(0.5291 -0.8486 0.8486 0.5291 -5.003 232.8601)" fill="#B26919" cx="207.3" cy="120.9" rx="1" ry="1"/>
	<ellipse transform="matrix(0.5291 -0.8486 0.8486 0.5291 -5.4966 242.5524)" fill="#B26919" cx="215.8" cy="126.2" rx="1" ry="1"/>
</g>
<g id="plaster_1_">
	<path fill="#EFA66A" stroke="#B26919" stroke-width="2" stroke-linecap="round" stroke-miterlimit="10" d="M191.2,139.2l30.2-48.4
		c2.6-4.2,8.2-5.5,12.4-2.9l0,0c4.2,2.6,5.5,8.2,2.9,12.4l-30.2,48.4c-2.6,4.2-8.2,5.5-12.4,2.9l0,0
		C189.9,149,188.6,143.4,191.2,139.2z"/>
	
		<line fill="#EFA66A" stroke="#B26919" stroke-width="2" stroke-linecap="round" stroke-miterlimit="10" x1="211" y1="133.9" x2="201.7" y2="128"/>
	
		<line fill="#EFA66A" stroke="#B26919" stroke-width="2" stroke-linecap="round" stroke-miterlimit="10" x1="224.3" y1="112.7" x2="214.9" y2="106.8"/>
	<ellipse transform="matrix(0.5291 -0.8486 0.8486 0.5291 3.2757 242.0274)" fill="#B26919" cx="219.7" cy="118.1" rx="1" ry="1"/>
	
		<ellipse transform="matrix(0.9977 -6.817219e-02 6.817219e-02 0.9977 -8.1282 14.9111)" fill="#B26919" cx="214.4" cy="126.5" rx="1" ry="1"/>
	
		<ellipse transform="matrix(0.9977 -6.817219e-02 6.817219e-02 0.9977 -7.6965 14.8453)" fill="#B26919" cx="213.7" cy="120.2" rx="1" ry="1"/>
	<ellipse transform="matrix(0.5291 -0.8486 0.8486 0.5291 3.6706 234.2736)" fill="#B26919" cx="212.9" cy="113.8" rx="1" ry="1"/>
	<ellipse transform="matrix(0.5291 -0.8486 0.8486 0.5291 -6.0216 233.78)" fill="#B26919" cx="207.6" cy="122.3" rx="1" ry="1"/>
</g>
<g>
	<path fill="none" stroke="#AF4747" stroke-width="2" stroke-linecap="round" stroke-miterlimit="10" d="M194,187.5
		c0,0,0-9.5-9.5-9.5s-8.5,9.5-8.5,9.5"/>
	<g>
		<circle fill="#FFFFFF" stroke="#AF4747" stroke-miterlimit="10" cx="160.7" cy="169.7" r="10"/>
		<circle cx="160.7" cy="169.7" r="5"/>
		<circle fill="none" stroke="#AF4747" stroke-width="2" stroke-miterlimit="10" cx="160.7" cy="169.7" r="10"/>
	</g>
	<g>
		<circle fill="#FFFFFF" stroke="#AF4747" stroke-miterlimit="10" cx="209.7" cy="171.7" r="10"/>
		<circle cx="209.7" cy="171.7" r="5"/>
		<g>
			<path fill="#EFEFEF" d="M212.2,177.9c-3.1-0.1-6.2-0.4-9-1.7c-1.2-0.6-2.4-1.3-3.4-2.3c1.1,4.4,5,7.7,9.7,7.7
				c3.4,0,6.4-1.7,8.2-4.3c-0.1,0-0.2,0.1-0.3,0.1C215.7,177.8,213.9,177.9,212.2,177.9z"/>
		</g>
		<circle fill="none" stroke="#AF4747" stroke-width="2" stroke-miterlimit="10" cx="209.7" cy="171.7" r="10"/>
	</g>
	<g>
		<path fill="#AF4747" stroke="#AF4747" stroke-width="2" stroke-miterlimit="10" d="M152,174.7c1.7,3,4.9,5,8.6,5
			c4,0,7.5-2.4,9.1-5.8C168,172,164,171,159,172C156.7,172.5,152.7,174.5,152,174.7z"/>
	</g>
	<g>
		<path fill="#AF4747" stroke="#AF4747" stroke-width="2" stroke-miterlimit="10" d="M201,175.7c1.7,3,4.9,5,8.6,5
			c4,0,7.5-2.4,9.1-5.8C217,173,213,172,208,173C205.7,173.5,201.7,175.5,201,175.7z"/>
	</g>
</g>
</svg>
