<?xml version="1.0" encoding="utf-8"?>
<!-- Generator: Adobe Illustrator 21.1.0, SVG Export Plug-In . SVG Version: 6.00 Build 0)  -->
<svg version="1.1" id="Layer_1" xmlns="http://www.w3.org/2000/svg" xmlns:xlink="http://www.w3.org/1999/xlink" x="0px" y="0px"
	 viewBox="0 0 350 350" enable-background="new 0 0 350 350" xml:space="preserve">
<g>
	<g>
		<path fill="#CE1D0F" d="M261.1,194.3c8.7,6.3,11,17.4,16.5,26.1c3.4,5.3,11.6,14.3,17.8,7.6c1.1-1.2-0.7-3.1-1.8-1.8
			c-1.6,1.7-5.3,1.4-7.1,0.2c-1-0.7-2-1.5-2.8-2.4c-1.6-1.6-3-3.5-4.2-5.5c-2-3.2-3.6-6.8-5.2-10.2c-3-6.2-6.2-12.1-11.9-16.3
			C261.1,191,259.8,193.3,261.1,194.3L261.1,194.3z"/>
	</g>
</g>
<g>
	<g>
		<path fill="#CE1D0F" d="M295.3,225.9c-1.2-1.7-1.9-3.6-2.1-5.6c-0.7,0.4-1.3,0.7-2,1.1c2.1,1.6,0.1,4.9,2.4,6.1
			c2.9,1.5,4.4-3.9,7.3-2.5c0-0.7,0-1.5,0-2.2c-1.8,1.2-3.7,2-5.9,2.1c0.4,0.4,0.9,0.9,1.3,1.3c-0.2-1.9,0.1-3.6,1.1-5.3
			c-0.8-0.2-1.6-0.4-2.4-0.7c-0.1,1.7-0.5,3.3-1.2,4.8c-0.7,1.5,1.5,2.8,2.2,1.3c0.9-2,1.4-4,1.6-6.1c0.1-1.3-1.8-1.7-2.4-0.7
			c-1.1,2-1.6,4.2-1.4,6.6c0.1,0.7,0.5,1.3,1.3,1.3c2.6-0.1,5-0.9,7.2-2.4c0.7-0.5,1-1.8,0-2.2c-3-1.4-5,0.5-7.3,2.1
			c0.1,0.6,0.1,0.6,0.1-0.1c0-0.3,0-0.6,0-0.9c0-0.7-0.1-1.3-0.3-1.9c-0.4-1.2-1.2-2.1-2.2-2.8c-0.8-0.6-2,0.2-2,1.1
			c0.2,2.5,1,4.8,2.4,6.9C294,228.6,296.3,227.3,295.3,225.9L295.3,225.9z"/>
	</g>
</g>
<path fill="#A7DBD6" stroke="#5F9CB8" stroke-width="2.6009" stroke-linecap="round" stroke-linejoin="round" stroke-miterlimit="10" d="
	M144.1,52.4c0-17.6,1.3-33.8,1.7-37.4c-2.6,0.5-5.2,0.4-7.7-0.4c-3.5-1.1-6.5-3.8-7.5-7.3c-0.2-0.8-0.3-1.6-0.4-2.4
	c-7.7,5.6-12.9,31.9-12.9,31.9s-10.4-39-19.9-31.2S66.1,22,66.1,22s-2.7,1,18.2,35.5c19.9,32.9,6.1,67.6,6.1,67.6
	c50.3,26,69.4-25.1,69.4-25.1S144.1,72.3,144.1,52.4z"/>
<path fill="#A7DBD6" stroke="#5F9CB8" stroke-width="2.6009" stroke-linecap="round" stroke-linejoin="round" stroke-miterlimit="10" d="
	M138.2,14.6c2.5,0.8,5.1,0.8,7.7,0.4c0-0.5,0.1-0.7,0.1-0.7s-2.6-8.7-12.1-10.4c-1.2-0.2-2.4,0.2-3.6,1c0.1,0.8,0.2,1.6,0.4,2.4
	C131.6,10.8,134.7,13.5,138.2,14.6z"/>
<path fill="#3584A0" d="M68.7,22c0,0,23.4-9.5,30.3-16.5c0,0,1.7-0.9,1.7,0s-3.5,13-13,15.6S78.3,23.8,68.7,22z"/>
<path fill="#A7DBD6" stroke="#5F9CB8" stroke-width="2.6009" stroke-linecap="round" stroke-linejoin="round" stroke-miterlimit="10" d="
	M88.2,22.1c-6.7,3.1-14.8,3.1-21.6,0C73.3,25.2,81.4,25.2,88.2,22.1c6.7-3.1,12-9.3,14-16.4C100.2,12.8,94.9,19,88.2,22.1z"/>
<path fill="#3584A0" d="M131.6,5.1c0,0,4.3-0.9,7.8,1.7c3.5,2.6,5.2,6.9,5.2,6.9s-2.6,1.7-9.5-1.7C131.2,10.1,131.6,5.1,131.6,5.1z"
	/>
<g>
	<g>
		<path fill="#5F9CB8" d="M137.8,40.3c2.2,0.7,4.6,0.7,6.8,0c1.6-0.5,0.9-3-0.7-2.5c-1.8,0.6-3.6,0.6-5.4,0
			C136.9,37.3,136.2,39.8,137.8,40.3L137.8,40.3z"/>
	</g>
</g>
<g>
	<g>
		<path fill="#5F9CB8" d="M138.3,46.5c2.1,0.3,4.1,0.2,6-0.5c1.6-0.6,0.9-3.1-0.7-2.5c-1.5,0.5-3,0.8-4.6,0.5
			c-0.7-0.1-1.4,0.2-1.6,0.9C137.2,45.6,137.6,46.4,138.3,46.5L138.3,46.5z"/>
	</g>
</g>
<g>
	<g>
		<path fill="#5F9CB8" d="M137.6,53.2c2.4,0,5.5,0.3,7.4-1.6c1.2-1.2-0.6-3-1.8-1.8c-1.3,1.2-4,0.8-5.6,0.8
			C135.9,50.6,135.9,53.2,137.6,53.2L137.6,53.2z"/>
	</g>
</g>
<g>
	<g>
		<path fill="#5F9CB8" d="M137.2,59.7c2.8,0.7,5.5,0.3,8-1.1c1.5-0.8,0.1-3.1-1.3-2.2c-1.9,1.1-3.9,1.3-6,0.8
			C136.3,56.8,135.6,59.3,137.2,59.7L137.2,59.7z"/>
	</g>
</g>
<g>
	<g>
		<path fill="#5F9CB8" d="M138.5,66.4c2.7,0,5.3-0.5,7.7-1.7c1.5-0.7,0.2-3-1.3-2.2c-2,1-4.2,1.4-6.4,1.4
			C136.8,63.7,136.8,66.3,138.5,66.4L138.5,66.4z"/>
	</g>
</g>
<g>
	<g>
		<path fill="#5F9CB8" d="M137.1,72.1c3.1,0.5,6,0,8.8-1.5c1.5-0.8,0.2-3.1-1.3-2.2c-2.1,1.2-4.4,1.6-6.8,1.2
			C136.1,69.4,135.4,71.9,137.1,72.1L137.1,72.1z"/>
	</g>
</g>
<g>
	<g>
		<path fill="#5F9CB8" d="M134.4,77.5c4.7,0.6,9.3,0.3,13.5-2c1.5-0.8,0.1-3.1-1.3-2.2c-3.8,2.1-8,2.2-12.1,1.7
			C132.7,74.7,132.7,77.3,134.4,77.5L134.4,77.5z"/>
	</g>
</g>
<g>
	<g>
		<path fill="#5F9CB8" d="M130.4,83.7c7.6,1.9,15.1,1.2,22.2-1.9c1.5-0.7,0.2-2.9-1.3-2.2c-6.5,2.8-13.4,3.3-20.2,1.6
			C129.4,80.8,128.7,83.3,130.4,83.7L130.4,83.7z"/>
	</g>
</g>
<g>
	<g>
		<path fill="#5F9CB8" d="M139.9,35.1c1.6,0.4,3,0.8,4.6,0.3c1.6-0.5,0.9-3-0.7-2.5c-1.1,0.4-2.1,0-3.2-0.3
			C139,32.2,138.3,34.7,139.9,35.1L139.9,35.1z"/>
	</g>
</g>
<g>
	<path fill="#ED140A" d="M221.9,250.2c-10.2,7-20.9,13.9-33,16.6c-19.6,4.4-40.3-3-56.8-14.6c-14.4-10.1-26.6-23.5-41.4-32.6
		c0.9,2.5,1.8,5,2.8,7.5c26,65,77.2,71.1,77.2,71.1s60.7,12.1,82.4-57.2c1-3.2,1.9-6.4,2.8-9.5c-0.5,0.2-1,0.3-1.6,0.5
		C242.4,235.8,232.1,243.2,221.9,250.2z"/>
	<path fill="#FF1C09" d="M242,105c0,0-4.9-6.3-6-9c-4.3-10.4,0.7-28.6,3-33c8-15,18-26,18-26s-9.8-12.8-12-15c-6-6-29,25-35,33
		c-12.3,16.4-10,29.4-10,28c0-4,38-67,38-67c-12.1-21.7-51,7-59,17c-22.7,28.4-12.3,22-21,34.1c-7.9,11-12.1,24.3-24.3,32.1
		c-12.1,7.8-40.3,8.2-40.3,8.2s-24,50.5-2.8,112.1c14.9,9.1,27.1,22.5,41.4,32.6c16.4,11.6,37.1,19,56.8,14.6
		c12.1-2.7,22.8-9.6,33-16.6c10.2-7,20.5-14.3,32.3-18.2c0.5-0.2,1-0.3,1.6-0.5C273.2,168.3,257.7,133.9,242,105z"/>
</g>
<g>
	<path fill="#AD140C" d="M257.6,35.3c-0.2-2.3-1.1-2.5-2.7-6.3c-0.4-1-2.1-2.6-2.9-3.8c-0.8-1.2-1.7-1.8-2.8-2.7
		c-1.1-0.9-3-1.7-4.1-1.3c0.1,4.3,1.2,7.3,3.8,10.6c0.9,1.1,3.6,3.3,4.9,3.9c1.2,0.6,2.6,0.7,3.7-0.1"/>
	<g>
		<path fill="#AD140C" d="M258.8,35.3c-0.4-3.3-2.6-6.8-4.7-9.3c-2.3-2.8-5.2-6.7-9.4-5.9c-0.5,0.1-0.9,0.7-0.9,1.2
			c0.2,4.5,1.6,9,4.9,12.3c2.4,2.4,5.8,5.1,9.2,3.2c1.4-0.7,0.2-2.8-1.2-2.1c-2.6,1.4-6.1-2.3-7.4-4.2c-2-2.8-2.9-5.8-3-9.2
			c-0.3,0.4-0.6,0.8-0.9,1.2c3.1-0.6,6.2,4,7.7,6.1c1.3,1.7,3,4.6,3.3,6.8C256.5,36.8,258.9,36.8,258.8,35.3L258.8,35.3z"/>
	</g>
</g>
<g>
	<path fill="#AD140C" d="M236.5,15.5C234.2,14,227,9,224.7,9.3c-1.6,0.2-4.2,0.7-5.8,0.9c-1.6,0.2-3.9,0.6-4.3,1.7
		c4.1,2.9,4.9,5.2,9.9,5.6c1.7,0.1,7.3,0.9,8.7,0.4C234.6,17.4,236.5,15.5,236.5,15.5z"/>
	<g>
		<path fill="#AD140C" d="M237.2,14.4c-3.4-2.2-7.5-5.8-11.6-6.3c-2.3-0.3-5.3,0.5-7.6,0.9c-1.9,0.4-3.3,0.7-4.4,2.3
			c-0.5,0.6,0,1.4,0.5,1.8c2.2,1.6,4.1,3.8,6.6,4.9c2,0.8,4.2,0.9,6.3,1.1c4.5,0.4,7.2,0.6,10.6-2.6c1.2-1.2-0.6-3-1.9-1.9
			c-2.9,2.8-6,2.2-9.7,1.8c-4.7-0.5-7-2.8-10.6-5.6c0.2,0.6,0.3,1.2,0.5,1.8c1.7-2.4,9.9-2,12-0.9c2.8,1.4,5.5,3.2,8.1,5
			C237.3,17.6,238.6,15.3,237.2,14.4z"/>
	</g>
</g>
<circle fill="#ED140A" cx="246.4" cy="208.4" r="1.3"/>
<circle fill="#ED140A" cx="245.6" cy="218" r="1.3"/>
<circle fill="#ED140A" cx="255.1" cy="206.7" r="1.3"/>
<circle fill="#ED140A" cx="250.8" cy="225.8" r="2.2"/>
<circle fill="#ED140A" cx="254.7" cy="214.9" r="1.7"/>
<circle fill="#ED140A" cx="253.4" cy="185" r="1.3"/>
<circle fill="#ED140A" cx="257.7" cy="192.8" r="1.3"/>
<circle fill="#ED140A" cx="259" cy="169.9" r="1.7"/>
<circle fill="#ED140A" cx="92.6" cy="199.3" r="1.7"/>
<circle fill="#ED140A" cx="89.5" cy="186.8" r="1.3"/>
<circle fill="#ED140A" cx="87.8" cy="175.5" r="2.2"/>
<circle fill="#ED140A" cx="95.6" cy="192" r="1.3"/>
<circle fill="#ED140A" cx="93.4" cy="183.7" r="0.9"/>
<circle fill="#ED140A" cx="99.9" cy="206.7" r="0.4"/>
<circle fill="#ED140A" cx="93" cy="176.4" r="1.3"/>
<circle fill="#ED140A" cx="90.8" cy="171.6" r="0.9"/>
<circle fill="#ED140A" cx="101.2" cy="216.7" r="0.9"/>
<g>
	
		<ellipse transform="matrix(0.7747 -0.6323 0.6323 0.7747 8.6945 124.0344)" fill="#ED140A" cx="178.4" cy="49.8" rx="1.3" ry="1.3"/>
	
		<ellipse transform="matrix(0.7747 -0.6323 0.6323 0.7747 13.4769 126.2472)" fill="#ED140A" cx="183.9" cy="44.2" rx="1.3" ry="1.3"/>
	
		<ellipse transform="matrix(0.7747 -0.6323 0.6323 0.7747 18.5667 126.2655)" fill="#ED140A" cx="186.5" cy="37.1" rx="1.7" ry="1.7"/>
	
		<ellipse transform="matrix(0.7747 -0.6323 0.6323 0.7747 24.6523 126.8862)" fill="#ED140A" cx="190.4" cy="28.8" rx="1.3" ry="1.3"/>
	
		<ellipse transform="matrix(0.7747 -0.6323 0.6323 0.7747 14.3866 123.0568)" fill="#ED140A" cx="179.9" cy="41.3" rx="0.9" ry="0.9"/>
	
		<ellipse transform="matrix(0.7747 -0.6323 0.6323 0.7747 0.7095 124.305)" fill="#ED140A" cx="174.8" cy="61.2" rx="0.9" ry="0.9"/>
	
		<ellipse transform="matrix(0.7747 -0.6323 0.6323 0.7747 6.6845 127.9193)" fill="#ED140A" cx="182.9" cy="54.6" rx="0.9" ry="0.9"/>
	
		<ellipse transform="matrix(0.7747 -0.6323 0.6323 0.7747 15.1491 133.0396)" fill="#ED140A" cx="194.3" cy="45.3" rx="0.9" ry="0.9"/>
	
		<ellipse transform="matrix(0.7747 -0.6323 0.6323 0.7747 23.7426 130.0765)" fill="#ED140A" cx="194.4" cy="31.7" rx="0.9" ry="0.9"/>
	<ellipse transform="matrix(0.7747 -0.6323 0.6323 0.7747 18.45 130.9557)" fill="#ED140A" cx="193" cy="39.6" rx="0.9" ry="0.9"/>
	
		<ellipse transform="matrix(0.7747 -0.6323 0.6323 0.7747 29.0291 130.894)" fill="#ED140A" cx="198.2" cy="24.7" rx="1.3" ry="1.3"/>
</g>
<ellipse fill="#ED140A" cx="248.6" cy="195.4" rx="0" ry="0.4"/>
<circle fill="#ED140A" cx="101.2" cy="198.5" r="0.9"/>
<g>
	<g>
		<path fill="#CE1D0F" d="M89.8,209.5c-12.6-4.5-22.4-15.4-25.2-28.6c-2.1-10.2,0.2-24-11.6-28.9c-1.5-0.6-2.2,1.9-0.7,2.5
			c8.3,3.4,8.3,13.4,9,20.9c0.5,5.6,1.8,10.9,4.3,16c4.9,9.7,13.3,17,23.5,20.6C90.7,212.6,91.3,210.1,89.8,209.5L89.8,209.5z"/>
	</g>
</g>
<g>
	<g>
		<path fill="#CE1D0F" d="M52.7,152.4c-1.2,0.4-2.3,0.7-3.5,1.1c0.4,0.7,0.8,1.4,1.3,2.2c2.4-2.6,0.5-5.7-1.6-7.7
			c-0.5,0.7-1.1,1.4-1.6,2c1.7,0.9,3.1,1.9,4.4,3.3c0.6,0.7,1.6,0.4,2-0.3c1-1.3,1.9-2.5,2.9-3.8c-0.8-0.3-1.6-0.7-2.4-1
			c-0.5,1.1-0.9,2.2-1.4,3.3c-0.6,1.5,1.9,2.2,2.5,0.7c0.5-1.1,0.9-2.2,1.4-3.3c0.6-1.5-1.6-2.1-2.4-1c-1,1.3-1.9,2.5-2.9,3.8
			c0.7-0.1,1.4-0.2,2-0.3c-1.4-1.5-3.1-2.8-5-3.7c-1.3-0.7-2.7,1-1.6,2c0.9,0.9,2.9,2.6,1.6,4c-0.8,0.9,0,2.6,1.3,2.2
			c1.2-0.4,2.3-0.7,3.5-1.1C55,154.5,54.3,151.9,52.7,152.4L52.7,152.4z"/>
	</g>
</g>
<g>
	<path fill="#CE1D0F" d="M168.7,298.2c2.7,12.6,4.5,25.4,5.6,38.2c0.1,0.8,0.1,1.8-0.5,2.4c-0.5,0.5-1.3,0.6-2.1,0.5
		c-2.5-0.1-5.2-1-7.5-0.1c-2.3,1-2.9,5.2-0.4,5.6c0.9,0.1,1.8-0.3,2.5-0.8c2.1-1.3,4.1-2.7,6-4.4"/>
	<g>
		<path fill="#CE1D0F" d="M167.4,298.5c2,9.3,3.5,18.7,4.6,28.2c0.2,1.9,0.4,3.8,0.6,5.8c0.4,3.8,0.8,5.5-3.7,5.2
			c-2-0.2-4.1-0.4-5.8,0.7c-2.2,1.4-3.4,5.2-1.1,7.1c3.3,2.7,8.9-2.9,11.1-4.8c1.3-1.1-0.6-2.9-1.8-1.8c-1.2,1-2.5,2-3.8,3
			c-0.6,0.4-1.2,0.8-1.9,1.2c0.5-0.9,1-1.9,1.5-2.8c1.5-0.7,4.3,0.9,6,0.4c3.2-1,2.4-4.5,2.2-7c-1.1-12-2.9-23.9-5.4-35.6
			C169.6,296.2,167.1,296.9,167.4,298.5L167.4,298.5z"/>
	</g>
</g>
<g>
	<path fill="#CE1D0F" d="M204,296.5c-1.2,14.1-2.7,28.2-4.7,42.2c2.2-3.6,8.1-4.1,11-0.9c1,1.2,1.6,3.1,0.6,4.2
		c-0.9,0.9-2.4,0.9-3.6,0.7c-3.2-0.6-6.3-1.8-9-3.6"/>
	<g>
		<path fill="#CE1D0F" d="M202.7,296.5c-1.2,14-2.7,28-4.6,41.9c-0.2,1.5,1.5,2.2,2.4,1c1-1.3,3.1-2.4,4.7-2.4
			c2.5,0.1,5.7,4.5,2.1,4.3c-2.9-0.1-5.9-1.9-8.3-3.3c-1.4-0.9-2.7,1.4-1.3,2.2c3.2,2,8.5,4.9,12.4,3.7c2.5-0.7,3.2-3.2,2.2-5.5
			c-2.5-5.9-10.7-4.6-14-0.4c0.8,0.3,1.6,0.7,2.4,1c1.9-14.1,3.5-28.3,4.7-42.6C205.4,294.8,202.8,294.8,202.7,296.5L202.7,296.5z"
			/>
	</g>
</g>
<g>
	<g>
		<path fill="#5F9CB8" d="M140.9,29.5c1.5,0.2,3,0.4,4.4-0.1c0.7-0.2,1.1-0.9,0.9-1.6c-0.2-0.6-0.9-1.2-1.6-0.9c-1,0.4-2,0.2-3,0.1
			c-0.7-0.1-1.4,0.2-1.6,0.9C139.8,28.5,140.2,29.4,140.9,29.5L140.9,29.5z"/>
	</g>
</g>
<g>
	<g>
		<path fill="#5F9CB8" d="M141.2,24.2c1.5,0.3,2.7,0.3,4.2,0c0.7-0.1,1.1-1,0.9-1.6c-0.2-0.7-0.9-1-1.6-0.9c-1,0.2-1.8,0.2-2.8,0
			c-0.7-0.1-1.4,0.2-1.6,0.9C140.1,23.2,140.5,24,141.2,24.2L141.2,24.2z"/>
	</g>
</g>
<g>
	<g>
		<path fill="#5F9CB8" d="M141.3,20.1c1.4-0.2,2.7,0.1,4-0.2c1.6-0.4,0.9-2.9-0.7-2.5c-1.1,0.3-2.2,0-3.3,0.1
			c-0.7,0.1-1.3,0.5-1.3,1.3C140,19.4,140.6,20.1,141.3,20.1L141.3,20.1z"/>
	</g>
</g>
<g>
	<path fill="none" stroke="#CE1D0F" stroke-width="2.6009" stroke-linecap="round" stroke-miterlimit="10" d="M172.2,211.6
		c0,0,0,9.8,9.8,9.8s8.8-9.8,8.8-9.8"/>
	<g>
		<circle fill="#FFFFFF" stroke="#AF4747" stroke-width="1.0345" stroke-miterlimit="10" cx="156.4" cy="203" r="10.3"/>
		<circle cx="156.4" cy="203" r="5.2"/>
		<g>
			<path fill="#EFEFEF" d="M159,209.4c-3.2-0.1-6.4-0.5-9.3-1.8c-1.3-0.6-2.5-1.4-3.5-2.4c1.1,4.5,5.2,7.9,10,7.9
				c3.5,0,6.6-1.8,8.5-4.5c-0.1,0-0.2,0.1-0.3,0.1C162.6,209.4,160.8,209.4,159,209.4z"/>
		</g>
		
			<circle fill="none" stroke="#CE1D0F" stroke-width="2.6009" stroke-linecap="round" stroke-miterlimit="10" cx="156.4" cy="203" r="10.3"/>
	</g>
	<g>
		<circle fill="#FFFFFF" stroke="#AF4747" stroke-width="1.0345" stroke-miterlimit="10" cx="207.1" cy="205.1" r="10.3"/>
		<circle cx="207.1" cy="205.1" r="5.2"/>
		<g>
			<path fill="#EFEFEF" d="M209.6,211.5c-3.2-0.1-6.4-0.5-9.3-1.8c-1.3-0.6-2.5-1.4-3.5-2.4c1.1,4.5,5.2,7.9,10,7.9
				c3.5,0,6.6-1.8,8.5-4.5c-0.1,0-0.2,0.1-0.3,0.1C213.3,211.4,211.5,211.5,209.6,211.5z"/>
		</g>
		
			<circle fill="none" stroke="#CE1D0F" stroke-width="2.6009" stroke-linecap="round" stroke-miterlimit="10" cx="207.1" cy="205.1" r="10.3"/>
	</g>
</g>
<g>
	<g>
		<path fill="#FFFFFF" d="M202.9,91.9c4.1-12.2,10.2-23.3,17.8-33.6c1.2-1.5-1.4-3-2.6-1.5c-7.8,10.5-14,21.9-18.2,34.4
			C199.4,92.9,202.3,93.7,202.9,91.9L202.9,91.9z"/>
	</g>
</g>
<g>
	<g>
		<path fill="#FFFFFF" d="M239.2,114.8c6.4,11,10.3,23,11.5,35.6c0.2,1.9,3.2,1.9,3,0c-1.3-13.2-5.3-25.7-12-37.1
			C240.8,111.6,238.2,113.1,239.2,114.8L239.2,114.8z"/>
	</g>
</g>
<path fill="none" stroke="#CE1D0F" stroke-width="2.6009" stroke-linecap="round" stroke-linejoin="round" stroke-miterlimit="10" d="
	M192.5,95.5c-7.1,18.5,7-20,18-40c7.5-13.7,22-32,26.5-39.8l-1.5,1.8c-1.9,1-6.9,2.1-9,2c-6.9-0.5-14-8-14-8
	c-15.2,2.9-29.4,13.7-37.9,26.7c-4.4,6.7-11.4,21.3-15.7,28.1c-7.3,11.4-12.1,24.3-24.3,32.1s-40.3,8.2-40.3,8.2s-26,54.6,0,119.6
	s77.2,71.1,77.2,71.1s63,12.8,82.4-57.2c23.7-85.6-4.5-123.5-17.3-140.6c-3-4-3-19-1.6-26c4.5-23.3,22.6-37,22.6-37s-12,1-13-15
	C244.5,21.5,220.5,22.5,192.5,95.5z"/>
<path fill="none" stroke="#CE1D0F" stroke-width="3" stroke-linecap="round" stroke-linejoin="round" stroke-miterlimit="10" d="
	M211.5,11.5c0,0,16-8,26,4"/>
<path fill="none" stroke="#CE1D0F" stroke-width="3" stroke-linecap="round" stroke-linejoin="round" stroke-miterlimit="10" d="
	M244.3,21c1.8-0.6,3.9-0.2,5.6,0.8c1.7,1,3.1,2.4,4.3,3.9c2.3,2.8,4.2,6,4.5,9.6"/>
</svg>
