<?xml version="1.0" encoding="utf-8"?>
<!-- Generator: Adobe Illustrator 21.1.0, SVG Export Plug-In . SVG Version: 6.00 Build 0)  -->
<svg version="1.1" id="Layer_1" xmlns="http://www.w3.org/2000/svg" xmlns:xlink="http://www.w3.org/1999/xlink" x="0px" y="0px"
	 viewBox="0 0 350 350" enable-background="new 0 0 350 350" xml:space="preserve">
<g>
	<g>
		<path fill="#E2C3C3" d="M141.5,60.5c5.8-1.2,10.2-6.8,13.4-11.8c1.8-2.9,3-6.6,1.6-9.7c-0.9-1.9-2.6-5-4.5-6
			c-4.3-2.3-9.5-1.2-14.3-0.1c-1.6,0.4-7.2,4.6-7.2,4.6c-5.7-6.3-7.7-9-10-16c0,0,13.5-7.6,20.2-8.9c0,0,23.5-3.3,32.8,2.9
			s15.7,18.6,18.4,29.4c0,0,13.1,15.7,20.4,17.7l-9.7,15.5c0,0-27-19.6-52-2.1L141.5,60.5z"/>
	</g>
	<g>
		<path fill="#EDDFDF" d="M173.3,57.4c-12.1,0-24,2.5-35.5,6.2L147,82c0,0,3-14,27-14s31,12,31,12l7.6-12.1
			C201.1,60.6,187.1,57.3,173.3,57.4z"/>
	</g>
	<path fill="none" stroke="#AF4747" stroke-width="3" stroke-linecap="round" stroke-miterlimit="10" d="M141.5,60.5
		c5.8-1.2,10.8-6.4,13.4-11.8c1.6-3.2,3-6.6,1.6-9.7c-0.9-1.9-3.1-5.5-5-6.5c-4.3-2.3-6-3-13.8,0.4c-1.6,0.7-7.2,4.6-7.2,4.6
		c-5.7-6.3-7.7-9-10-16c0,0,13.5-7.4,20.2-8.9c9.8-2.1,23.5-3.3,32.8,2.9s15.7,18.6,18.4,29.4c0,0,13.1,15.7,20.4,17.7l-9.7,15.5
		c0,0-27-19.6-52-2.1L141.5,60.5z"/>
</g>
<g>
	<g>
		<g>
			<path fill="#AF4747" d="M53,221.8c-4.8,15.5-10.8,30.6-18.3,45c-0.9,1.7,1.7,3.2,2.6,1.5c7.5-14.7,13.7-30,18.6-45.8
				C56.5,220.7,53.6,219.9,53,221.8L53,221.8z"/>
		</g>
	</g>
	<g>
		<g>
			<path fill="#AF4747" d="M38.6,274.3c-0.1-2.8-0.1-5.6-0.2-8.3c0-1.9-3-1.9-3,0c0.1,2.8,0.1,5.6,0.2,8.3
				C35.6,276.3,38.6,276.3,38.6,274.3L38.6,274.3z"/>
		</g>
	</g>
	<g>
		<g>
			<path fill="#AF4747" d="M36.9,264.5c-2.3,0.1-4.6,0.1-6.9,0.2c-1.9,0-1.9,3,0,3c2.3-0.1,4.6-0.1,6.9-0.2
				C38.8,267.4,38.8,264.4,36.9,264.5L36.9,264.5z"/>
		</g>
	</g>
	<g>
		<g>
			<path fill="#AF4747" d="M36.1,265.4c-1.3,1.9-3,3.4-5,4.5c-1.7,1-0.2,3.6,1.5,2.6c2.4-1.4,4.5-3.3,6.1-5.6
				C39.8,265.3,37.2,263.8,36.1,265.4L36.1,265.4z"/>
		</g>
	</g>
	<g>
		<g>
			<path fill="#AF4747" d="M38.5,264.9c-1.6-2.4-3.8-4.3-6.4-5.5c-1.7-0.8-3.3,1.8-1.5,2.6c2.1,1,4,2.5,5.3,4.4
				C37,268,39.6,266.5,38.5,264.9L38.5,264.9z"/>
		</g>
	</g>
</g>
<g>
	<g>
		<g>
			<path fill="#AF4747" d="M300.3,224.2c0.7,10.3,1.7,20.5,3.3,30.7c1.5,9.6,2.9,19.4,7.5,28c0.9,1.7,3.5,0.2,2.6-1.5
				c-4.4-8.4-5.7-18.1-7.2-27.3c-1.6-9.9-2.6-19.9-3.2-29.9C303.1,222.3,300.1,222.3,300.3,224.2L300.3,224.2z"/>
		</g>
	</g>
	<g>
		<g>
			<path fill="#AF4747" d="M314.3,281.9c0.3-1.9,1.1-3.6,2.5-4.9c1.4-1.3-0.7-3.4-2.1-2.1c-1.8,1.7-2.9,3.8-3.3,6.3
				c-0.1,0.8,0.2,1.6,1,1.8C313.1,283.2,314.2,282.7,314.3,281.9L314.3,281.9z"/>
		</g>
	</g>
	<g>
		<g>
			<path fill="#AF4747" d="M312.5,282.5c1.9,1.2,3.7,2.5,5.5,3.9c1.5,1.2,3.6-0.9,2.1-2.1c-2-1.5-4-3-6.1-4.4
				C312.4,278.9,310.9,281.4,312.5,282.5L312.5,282.5z"/>
		</g>
	</g>
	<g>
		<g>
			<path fill="#AF4747" d="M311,281.8c-1.1,3.6-1.3,7.2-0.7,10.9c0.3,1.9,3.2,1.1,2.9-0.8c-0.5-3.2-0.2-6.3,0.7-9.3
				C314.5,280.7,311.6,280,311,281.8L311,281.8z"/>
		</g>
	</g>
	<g>
		<g>
			<path fill="#AF4747" d="M310,283.4c1.9,2.2,3.3,4.7,4.2,7.4c0.6,1.8,3.5,1,2.9-0.8c-1.1-3.2-2.8-6.2-5-8.8
				C310.8,279.8,308.7,281.9,310,283.4L310,283.4z"/>
		</g>
	</g>
</g>
<g>
	<g>
		<path fill="#AF4747" d="M87.4,259.3c0.4,23.2,0.9,46.5,1.3,69.7c0.6-0.5,1.3-1,1.9-1.4c-5.8-0.9-11.7-1.2-17.6-1
			c-1.9,0.1-1.9,3.1,0,3c5.6-0.3,11.2,0,16.8,0.8c0.9,0.1,1.9-0.4,1.9-1.4c-0.4-23.2-0.9-46.5-1.3-69.7
			C90.4,257.4,87.4,257.4,87.4,259.3L87.4,259.3z"/>
	</g>
</g>
<g>
	<g>
		<path fill="#AF4747" d="M119.4,260c-0.4,24.2-0.1,48.4,1.1,72.6c0,0.7,0.7,1.6,1.5,1.5c2.7-0.4,5.3-0.5,8-0.3c1.9,0.1,1.9-2.9,0-3
			c-2.7-0.1-5.3,0-8,0.3c0.5,0.5,1,1,1.5,1.5c-1.1-24.2-1.5-48.4-1.1-72.6C122.4,258.1,119.4,258.1,119.4,260L119.4,260z"/>
	</g>
</g>
<g>
	<path fill="#BC8080" d="M68.6,240.5c-8.4-3.8-16.3-9-22.9-15.4c0.9,16.7,5.6,29.4,11.4,37.9c11,16,46,27,80,13
		c16.9-7,27.6-17.4,32.8-36.3c-13.1,8.4-30.2,10.6-46.1,10.6C105,250.4,85.8,248.2,68.6,240.5z"/>
	<path fill="#D89191" d="M169.2,151c-11-83-30-89-30-89c-35,4-70,64-85,109c-7.1,21.2-9.2,39.2-8.4,54.1
		c6.6,6.4,14.5,11.7,22.9,15.4c17.2,7.7,36.4,9.8,55.2,9.8c15.9-0.1,33.1-2.2,46.1-10.6C175.2,220.6,174.7,192.7,169.2,151z"/>
</g>
<g>
	<g>
		<path fill="#AF4747" d="M220.4,274.3c0,20.4,0,40.9,0,61.3c0.5-0.5,1-1,1.5-1.5c-4.9-0.1-9.8-0.3-14.7-0.4c-1.9-0.1-1.9,2.9,0,3
			c4.9,0.1,9.8,0.3,14.7,0.4c0.8,0,1.5-0.7,1.5-1.5c0-20.4,0-40.9,0-61.3C223.4,272.4,220.4,272.4,220.4,274.3L220.4,274.3z"/>
	</g>
</g>
<g>
	<g>
		<path fill="#AF4747" d="M250.2,280.6c-0.4,14.2-0.7,28.5-1.1,42.7c-0.1,3.2-0.2,6.5-0.2,9.7c0,1.4-0.3,3.1,0.9,4.1
			c1.5,1.3,5.1,1.2,7,1.5c3.9,0.7,7.8,1.3,11.7,2c1.9,0.3,2.7-2.6,0.8-2.9c-3.6-0.6-16-0.9-17.5-4.7c-0.8-2.1,0.2-6.6,0.2-8.7
			c0.1-2.9,0.1-5.8,0.2-8.7c0.3-11.6,0.6-23.3,0.9-34.9C253.2,278.7,250.2,278.7,250.2,280.6L250.2,280.6z"/>
	</g>
</g>
<g>
	<circle fill="#C18484" cx="53.4" cy="207.4" r="1.3"/>
	<circle fill="#C18484" cx="52.6" cy="217" r="1.3"/>
	<circle fill="#C18484" cx="62.1" cy="205.7" r="1.3"/>
	<circle fill="#C18484" cx="57.8" cy="224.8" r="2.2"/>
	<circle fill="#C18484" cx="61.7" cy="213.9" r="1.7"/>
	<circle fill="#C18484" cx="60.4" cy="184" r="1.3"/>
	<circle fill="#C18484" cx="64.7" cy="191.8" r="1.3"/>
	<circle fill="#C18484" cx="66" cy="168.9" r="1.7"/>
	<ellipse fill="#C18484" cx="55.6" cy="194.4" rx="0" ry="0.4"/>
</g>
<g>
	
		<ellipse transform="matrix(0.9161 -0.4009 0.4009 0.9161 -35.0507 68.4777)" fill="#C18484" cx="146.1" cy="118" rx="1.3" ry="1.3"/>
	
		<ellipse transform="matrix(0.9161 -0.4009 0.4009 0.9161 -38.4385 70.454)" fill="#C18484" cx="149.1" cy="127.1" rx="1.3" ry="1.3"/>
	
		<ellipse transform="matrix(0.9161 -0.4009 0.4009 0.9161 -32.4126 70.9584)" fill="#C18484" cx="153.4" cy="112.9" rx="1.3" ry="1.3"/>
	
		<ellipse transform="matrix(0.9161 -0.4009 0.4009 0.9161 -39.806 74.0432)" fill="#C18484" cx="157" cy="132.1" rx="2.2" ry="2.2"/>
	
		<ellipse transform="matrix(0.9161 -0.4009 0.4009 0.9161 -35.2635 72.7703)" fill="#C18484" cx="156.3" cy="120.7" rx="1.7" ry="1.7"/>
	
		<ellipse transform="matrix(0.9161 -0.4009 0.4009 0.9161 -25.5931 65.2308)" fill="#C18484" cx="143.1" cy="93.8" rx="1.3" ry="1.3"/>
	
		<ellipse transform="matrix(0.9161 -0.4009 0.4009 0.9161 -27.1666 68.5308)" fill="#C18484" cx="150.2" cy="99.2" rx="1.3" ry="1.3"/>
	
		<ellipse transform="matrix(0.9161 -0.4009 0.4009 0.9161 -19.1923 63.5067)" fill="#C18484" cx="142.2" cy="77.6" rx="1.7" ry="1.7"/>
	<ellipse fill="#C18484" cx="142.9" cy="105.2" rx="0" ry="0.4"/>
</g>
<g>
	<path fill="#BC8080" d="M203.9,251.1c-6.3-1.4-12.6-3.4-18-6.9c5.7,15.5,15.9,24.5,31,30.8c34,14,69,3,80-13
		c5.9-8.5,10.6-21.3,11.5-38.2C280.3,248.2,240.4,259.2,203.9,251.1z"/>
	<path fill="#D89191" d="M300,170c-15-45-50-105-85-109c0,0-19,6-30,89c-6.1,45.9-6,75,1,94.2c5.3,3.5,11.7,5.5,18,6.9
		c36.5,8.1,76.4-2.9,104.5-27.3C309.2,209,307,191,300,170z"/>
</g>
<g>
	<path fill="none" stroke="#AF4747" stroke-width="3" stroke-linecap="round" stroke-miterlimit="10" d="M169.9,238.7
		c-5.1,18.9-15.9,29.3-32.8,36.3c-34,14-69,3-80-13c-5.8-8.5-10.5-21.2-11.4-37.9c-0.8-14.9,1.4-32.9,8.4-54.1c15-45,50-105,85-109
		c0,0,19,6,30,89C174.7,191.7,175.2,219.6,169.9,238.7z"/>
</g>
<g>
	<path fill="none" stroke="#AF4747" stroke-width="3" stroke-linecap="round" stroke-miterlimit="10" d="M308.5,224.8
		c-0.9,16.9-5.6,29.7-11.5,38.2c-11,16-46,27-80,13c-15.2-6.2-25.4-15.3-31-30.8c-7-19.2-7-48.3-1-94.2c11-83,30-89,30-89
		c35,4,70,64,85,109C307,192,309.2,210,308.5,224.8z"/>
</g>
<path fill="#FFF8F8" d="M112.3,222h-0.5c-0.4,0-0.7-0.3-0.7-0.7v-2.5c0-0.4,0.3-0.7,0.7-0.7h0.5c0.4,0,0.7,0.3,0.7,0.7v2.5
	C113,221.7,112.7,222,112.3,222z"/>
<path fill="#FFF8F8" d="M115.3,222h-0.5c-0.4,0-0.7-0.3-0.7-0.7v-2.5c0-0.4,0.3-0.7,0.7-0.7h0.5c0.4,0,0.7,0.3,0.7,0.7v2.5
	C116,221.7,115.7,222,115.3,222z"/>
<g>
	<circle fill="#C18484" cx="299.6" cy="214.4" r="1.3"/>
	<circle fill="#C18484" cx="300.4" cy="224" r="1.3"/>
	<circle fill="#C18484" cx="290.9" cy="212.7" r="1.3"/>
	<circle fill="#C18484" cx="295.2" cy="231.8" r="2.2"/>
	<circle fill="#C18484" cx="291.3" cy="220.9" r="1.7"/>
	<circle fill="#C18484" cx="292.6" cy="191" r="1.3"/>
	<circle fill="#C18484" cx="288.3" cy="198.8" r="1.3"/>
	<circle fill="#C18484" cx="287" cy="175.9" r="1.7"/>
	<ellipse fill="#C18484" cx="297.4" cy="201.4" rx="0" ry="0.4"/>
</g>
<g>
	<circle fill="#C18484" cx="188.6" cy="228.4" r="1.3"/>
	<circle fill="#C18484" cx="193.4" cy="247" r="1.3"/>
	<circle fill="#C18484" cx="195.9" cy="234.7" r="1.3"/>
	<circle fill="#C18484" cx="200.2" cy="253.8" r="2.2"/>
	<circle fill="#C18484" cx="196.3" cy="242.9" r="1.7"/>
	<circle fill="#C18484" cx="197.6" cy="213" r="1.3"/>
	<circle fill="#C18484" cx="193.3" cy="220.8" r="1.3"/>
	<circle fill="#C18484" cx="192" cy="197.9" r="1.7"/>
	<ellipse fill="#C18484" cx="202.4" cy="223.4" rx="0" ry="0.4"/>
</g>
<g>
	<g>
		<path fill="#FFFFFF" d="M136.3,71.2c-17.4,7.3-30.9,21.1-37.7,38.7c-0.7,1.8,2.2,2.6,2.9,0.8c6.4-16.5,19.3-29.8,35.6-36.6
			C138.8,73.3,138.1,70.4,136.3,71.2L136.3,71.2z"/>
	</g>
</g>
<g>
	<g>
		<path fill="#FFFFFF" d="M225.2,77.9c13,8.6,24.4,19.4,33.6,32c1.1,1.5,3.7,0,2.6-1.5c-9.6-13-21.2-24.1-34.7-33.1
			C225.1,74.3,223.6,76.9,225.2,77.9L225.2,77.9z"/>
	</g>
</g>
<g>
	<g>
		<path fill="#FFFFFF" d="M260.4,274.1c14.5-1.3,27.3-9.2,34.9-21.7c1-1.7-1.6-3.2-2.6-1.5c-7,11.5-18.9,19-32.3,20.2
			C258.5,271.3,258.5,274.3,260.4,274.1L260.4,274.1z"/>
	</g>
</g>
<g>
	<path fill="none" stroke="#AF4747" stroke-width="2" stroke-linecap="round" stroke-miterlimit="10" d="M255,227.5
		c0,0,0-9.5-9.5-9.5s-8.5,9.5-8.5,9.5"/>
	<path fill="none" stroke="#AF4747" stroke-width="2" stroke-linecap="round" stroke-miterlimit="10" d="M123,227.5
		c0,0,0-9.5-9.5-9.5s-8.5,9.5-8.5,9.5"/>
	<g>
		<circle fill="#FFFFFF" stroke="#AF4747" stroke-miterlimit="10" cx="221.7" cy="209.7" r="10"/>
		<circle cx="221.7" cy="209.7" r="5"/>
		<circle fill="none" stroke="#AF4747" stroke-width="2" stroke-miterlimit="10" cx="221.7" cy="209.7" r="10"/>
	</g>
	<g>
		<circle fill="#FFFFFF" stroke="#AF4747" stroke-miterlimit="10" cx="270.7" cy="211.7" r="10"/>
		<circle cx="270.7" cy="211.7" r="5"/>
		<g>
			<path fill="#EFEFEF" d="M273.2,217.9c-3.1-0.1-6.2-0.4-9-1.7c-1.2-0.6-2.4-1.3-3.4-2.3c1.1,4.4,5,7.7,9.7,7.7
				c3.4,0,6.4-1.7,8.2-4.3c-0.1,0-0.2,0.1-0.3,0.1C276.7,217.8,274.9,217.9,273.2,217.9z"/>
		</g>
		<circle fill="none" stroke="#AF4747" stroke-width="2" stroke-miterlimit="10" cx="270.7" cy="211.7" r="10"/>
	</g>
	<g>
		<path fill="#AF4747" stroke="#AF4747" stroke-width="2" stroke-miterlimit="10" d="M213,214.7c1.7,3,4.9,5,8.6,5
			c4,0,7.5-2.4,9.1-5.8C229,212,225,211,220,212C217.7,212.5,213.7,214.5,213,214.7z"/>
	</g>
	<g>
		<path fill="#AF4747" stroke="#AF4747" stroke-width="2" stroke-miterlimit="10" d="M262,215.7c1.7,3,4.9,5,8.6,5
			c4,0,7.5-2.4,9.1-5.8C278,213,274,212,269,213C266.7,213.5,262.7,215.5,262,215.7z"/>
	</g>
</g>
<path fill="#6CC0F4" d="M263,222c0,0-4,8,0,8S263,222,263,222z"/>
<path fill="none" stroke="#AF4747" stroke-width="3" stroke-linecap="round" stroke-miterlimit="10" d="M79.5,207.1
	c0,0,1,11.7,10.7,11.7s8.8-11.7,8.8-11.7"/>
<path fill="none" stroke="#AF4747" stroke-width="3" stroke-linecap="round" stroke-miterlimit="10" d="M128.5,209.1
	c0,0,1,11.7,10.7,11.7s8.8-11.7,8.8-11.7"/>
<line fill="none" stroke="#AF4747" stroke-width="0.5" stroke-linecap="round" stroke-miterlimit="10" x1="124" y1="215" x2="127" y2="220"/>
<line fill="none" stroke="#AF4747" stroke-width="0.5" stroke-linecap="round" stroke-miterlimit="10" x1="125" y1="214" x2="128" y2="219"/>
<line fill="none" stroke="#AF4747" stroke-width="0.5" stroke-linecap="round" stroke-miterlimit="10" x1="99.7" y1="219.5" x2="103.6" y2="215.1"/>
<line fill="none" stroke="#AF4747" stroke-width="0.5" stroke-linecap="round" stroke-miterlimit="10" x1="98.4" y1="218.9" x2="102.3" y2="214.5"/>
<g>
	<g>
		<path fill="#AF4747" d="M240.9,223.4c1.6-2.2,4.7-2.1,6.1,0.2c0.5,0.8,1.8,0.1,1.3-0.8c-2.1-3.3-6.5-3.3-8.7-0.2
			C239,223.4,240.3,224.1,240.9,223.4L240.9,223.4z"/>
	</g>
</g>
<g id="plaster_3_">
	<path fill="#EFA66A" stroke="#B26919" stroke-width="2" stroke-linecap="round" stroke-miterlimit="10" d="M70.6,151.3l43.1-37.3
		c3.7-3.2,9.5-2.8,12.7,0.9l0,0c3.2,3.7,2.8,9.5-0.9,12.7L82.3,165c-3.7,3.2-9.5,2.8-12.7-0.9l0,0C66.4,160.3,66.8,154.6,70.6,151.3
		z"/>
	
		<line fill="#EFA66A" stroke="#B26919" stroke-width="2" stroke-linecap="round" stroke-miterlimit="10" x1="91.1" y1="152.1" x2="83.9" y2="143.8"/>
	
		<line fill="#EFA66A" stroke="#B26919" stroke-width="2" stroke-linecap="round" stroke-miterlimit="10" x1="110" y1="135.8" x2="102.8" y2="127.4"/>
	<ellipse transform="matrix(0.7563 -0.6542 0.6542 0.7563 -65.9654 102.0569)" fill="#B26919" cx="104" cy="139.6" rx="1" ry="1"/>
	<ellipse transform="matrix(0.2299 -0.9732 0.9732 0.2299 -67.9271 206.405)" fill="#B26919" cx="96.5" cy="146.1" rx="1" ry="1"/>
	<ellipse transform="matrix(0.2299 -0.9732 0.9732 0.2299 -60.9023 202.69)" fill="#B26919" cx="97.6" cy="139.8" rx="1" ry="1"/>
	<ellipse transform="matrix(0.7563 -0.6542 0.6542 0.7563 -63.2823 97.1591)" fill="#B26919" cx="98.8" cy="133.5" rx="1" ry="1"/>
	<ellipse transform="matrix(0.7563 -0.6542 0.6542 0.7563 -69.4046 93.8052)" fill="#B26919" cx="91.2" cy="140.1" rx="1" ry="1"/>
</g>
</svg>
